<?xml version="1.0" encoding="UTF-8"?> <svg xmlns="http://www.w3.org/2000/svg" width="75" height="75" viewBox="0 0 75 75" fill="none"><path d="M48.9033 38.5202L70.7867 6.67338L67.8345 4.66064L48.2154 33.2029L29.0978 16.6442L26.7476 19.3422L48.9033 38.5202Z" fill="#ECE7F5"></path><path d="M62.0879 66.9055L65.1547 65.0641L48.4161 32.1609L25.1426 49.4047L28.3456 51.0035L47.6637 37.1428L62.0879 66.9055Z" fill="#ECE7F5"></path><path d="M69.311 11.3341C72.4532 11.3341 75.0004 8.79688 75.0004 5.66705C75.0004 2.53723 72.4532 0 69.311 0C66.1688 0 63.6216 2.53723 63.6216 5.66705C63.6216 8.79688 66.1688 11.3341 69.311 11.3341Z" fill="#D5C7EA"></path><path d="M27.9227 24.6523C31.615 24.6523 34.6081 21.6709 34.6081 17.9931C34.6081 14.3154 31.615 11.334 27.9227 11.334C24.2305 11.334 21.2373 14.3154 21.2373 17.9931C21.2373 21.6709 24.2305 24.6523 27.9227 24.6523Z" fill="#AA90D4"></path><path d="M63.6211 74.0002C68.0652 74.0002 71.6679 70.4117 71.6679 65.985C71.6679 61.5583 68.0652 57.9697 63.6211 57.9697C59.1769 57.9697 55.5742 61.5583 55.5742 65.985C55.5742 70.4117 59.1769 74.0002 63.6211 74.0002Z" fill="#AA90D4"></path><path d="M48.5593 47.1564C54.8238 47.1564 59.9023 42.0979 59.9023 35.858C59.9023 29.618 54.8238 24.5596 48.5593 24.5596C42.2947 24.5596 37.2163 29.618 37.2163 35.858C37.2163 42.0979 42.2947 47.1564 48.5593 47.1564Z" fill="#916FC8"></path><path d="M26.7476 55.4928C29.68 55.4928 32.0572 53.125 32.0572 50.2041C32.0572 47.2831 29.68 44.9153 26.7476 44.9153C23.8152 44.9153 21.438 47.2831 21.438 50.2041C21.438 53.125 23.8152 55.4928 26.7476 55.4928Z" fill="#D5C7EA"></path><path d="M38.2125 7.76534C35.6064 5.22829 32.1279 3.77546 28.4845 3.70236C24.8412 3.62926 21.3066 4.9414 18.6 7.37186C15.8934 9.80232 14.218 13.1685 13.9146 16.7857C13.6112 20.4029 14.7027 23.9994 16.9669 26.8435V26.8435L15.9134 27.8927C15.6323 28.1704 15.2845 28.3719 14.9031 28.4779L12.7965 29.0775C12.4173 29.1838 12.0718 29.3853 11.7933 29.6627L0.0849609 41.3251V45.7146H4.34122L16.1356 33.9594C16.2629 33.8388 16.3737 33.702 16.4652 33.5526L16.5656 33.3741C16.631 33.2405 16.686 33.1021 16.7304 32.9602L16.9812 32.068L17.3252 30.8618C17.3252 30.7976 17.3681 30.7262 17.3967 30.662L17.4613 30.5049C17.4613 30.455 17.5113 30.405 17.54 30.3479C17.5591 30.3258 17.5759 30.3019 17.5902 30.2765L17.6619 30.1695C17.7357 30.0576 17.8222 29.9546 17.9198 29.8626L18.6865 29.0917L18.9588 28.8205L18.7511 28.6421C21.5735 30.9307 25.1644 32.064 28.795 31.8119C32.4256 31.5599 35.8239 29.9414 38.3003 27.2849C40.7767 24.6284 42.1457 21.1329 42.1294 17.5078C42.1131 13.8827 40.7127 10.3996 38.2125 7.76534V7.76534ZM28.0806 28.585C25.9445 28.585 23.8562 27.9535 22.0807 26.7705C20.3052 25.5875 18.9221 23.9062 18.1066 21.9396C17.2911 19.973 17.0801 17.8096 17.4999 15.7233C17.9198 13.6371 18.9518 11.7219 20.4653 10.2204C21.9788 8.71888 23.9057 7.69855 26.0018 7.28865C28.0979 6.87876 30.2689 7.09773 32.2399 7.91785C34.211 8.73798 35.8934 10.1223 37.074 11.8956C38.2546 13.6689 38.8802 15.7512 38.8717 17.879C38.8584 20.7217 37.7159 23.4437 35.6937 25.4498C33.6716 27.4559 30.9346 28.5831 28.0806 28.585V28.585Z" fill="#FFB000"></path></svg> 