<?xml version="1.0" encoding="UTF-8"?> <svg xmlns="http://www.w3.org/2000/svg" width="75" height="75" viewBox="0 0 75 75" fill="none"><path d="M10.3626 25.5H4.63738C3.31887 25.5 2.25 26.4246 2.25 27.565V28.685C2.25 29.8254 3.31887 30.75 4.63738 30.75H10.3626C11.6811 30.75 12.75 29.8254 12.75 28.685V27.565C12.75 26.4246 11.6811 25.5 10.3626 25.5Z" fill="#AA90D4"></path><path d="M69.7831 25.5H64.4669C63.2425 25.5 62.25 26.4246 62.25 27.565V28.685C62.25 29.8254 63.2425 30.75 64.4669 30.75H69.7831C71.0075 30.75 72 29.8254 72 28.685V27.565C72 26.4246 71.0075 25.5 69.7831 25.5Z" fill="#AA90D4"></path><path d="M65.4297 27.75H9.57033L3.75 37.6139V51H71.25V37.6139L65.4297 27.75Z" fill="#AA90D4"></path><path d="M59.5644 6.75H15.4428C14.414 6.75097 13.4225 7.1277 12.6627 7.80644C11.9028 8.48517 11.4293 9.41704 11.3346 10.4196L9.75 27.75H65.25L63.6727 10.4196C63.5765 9.41764 63.1023 8.48669 62.3428 7.80826C61.5833 7.12983 60.5927 6.75256 59.5644 6.75Z" fill="#EEE9F6"></path><path d="M59.55 8.46351C59.9742 8.4633 60.3833 8.62321 60.6974 8.91206C61.0116 9.20091 61.2083 9.598 61.2493 10.0259L62.5901 25.2865H12.4029L13.7435 10.0259C13.7828 9.5967 13.9788 9.19785 14.2931 8.90749C14.6075 8.61714 15.0175 8.4562 15.4428 8.45624H59.5644L59.55 8.46351ZM59.5644 6H15.4428C14.414 6.00101 13.4225 6.39119 12.6627 7.09417C11.9028 7.79714 11.4291 8.76229 11.3345 9.80063L9.75 27.75H65.25L63.6725 9.80063C63.5763 8.76291 63.1023 7.79873 62.3428 7.09608C61.5833 6.39342 60.5927 6.00265 59.5644 6Z" fill="#AA90D4"></path><path d="M71.25 37.5H66V45.75H71.25V37.5Z" fill="#EEE9F6"></path><path d="M60.8187 45.75H66V37.5H60.8187C60.2037 37.5 59.614 37.7494 59.1791 38.1935C58.7443 38.6375 58.5 39.2397 58.5 39.8676V43.3897C58.5019 44.0164 58.7469 44.6167 59.1816 45.0591C59.6162 45.5016 60.205 45.75 60.8187 45.75Z" fill="#FFB000"></path><path d="M9.75 37.5H3.75V45.75H9.75V37.5Z" fill="#EEE9F6"></path><path d="M9.88299 68.25H6.61701C5.81713 68.2054 5.06721 67.8443 4.53084 67.2454C3.99446 66.6465 3.71527 65.8584 3.75389 65.0531V58.6969C3.71328 57.8911 3.99188 57.1019 4.52865 56.5026C5.06543 55.9033 5.81643 55.5427 6.61701 55.5H9.88299C10.6836 55.5427 11.4346 55.9033 11.9713 56.5026C12.5081 57.1019 12.7867 57.8911 12.7461 58.6969V65.0832C12.7767 65.8834 12.4938 66.6637 11.9582 67.2561C11.4227 67.8484 10.6775 68.2053 9.88299 68.25Z" fill="#8058BF"></path><path d="M68.3806 68.25H65.1194C64.3188 68.2054 63.5683 67.8443 63.0315 67.2454C62.4947 66.6465 62.2152 65.8584 62.2539 65.0531V58.6969C62.2132 57.8911 62.4921 57.1019 63.0293 56.5026C63.5665 55.9033 64.3181 55.5427 65.1194 55.5H68.3806C69.1819 55.5427 69.9335 55.9033 70.4707 56.5026C71.0079 57.1019 71.2868 57.8911 71.2461 58.6969V65.0832C71.2786 65.8839 70.9961 66.6654 70.4598 67.2581C69.9234 67.8509 69.1764 68.2072 68.3806 68.25Z" fill="#8058BF"></path><path d="M14.9335 37.5H9.75V45.75H14.9335C15.5466 45.75 16.1348 45.5016 16.5691 45.0591C17.0033 44.6167 17.2481 44.0164 17.25 43.3897V39.8676C17.25 39.2397 17.0059 38.6375 16.5715 38.1935C16.1371 37.7494 15.5479 37.5 14.9335 37.5Z" fill="#FFB000"></path><path d="M70.966 51H4.03399C3.04872 51 2.25 51.811 2.25 52.8113V57.4387C2.25 58.439 3.04872 59.25 4.03399 59.25H70.966C71.9513 59.25 72.75 58.439 72.75 57.4387V52.8113C72.75 51.811 71.9513 51 70.966 51Z" fill="#D5C7EA"></path><path d="M40.3764 11.25H34.6236C33.7269 11.25 33 11.9216 33 12.75C33 13.5784 33.7269 14.25 34.6236 14.25H40.3764C41.2731 14.25 42 13.5784 42 12.75C42 11.9216 41.2731 11.25 40.3764 11.25Z" fill="#AA90D4"></path><path d="M59.993 25.5H57.5665C57.5957 24.6189 57.4472 23.741 57.1302 22.9184C56.8132 22.0958 56.3339 21.3454 55.721 20.7118C55.108 20.0782 54.3738 19.5744 53.5622 19.2303C52.7505 18.8862 51.8781 18.7089 50.9965 18.7089C50.1149 18.7089 49.2424 18.8862 48.4308 19.2303C47.6191 19.5744 46.885 20.0782 46.272 20.7118C45.659 21.3454 45.1798 22.0958 44.8628 22.9184C44.5457 23.741 44.3973 24.6189 44.4265 25.5H42C42 23.1131 42.9484 20.8239 44.6362 19.136C46.324 17.4482 48.6131 16.5 51 16.5C53.3869 16.5 55.6762 17.4482 57.364 19.136C59.0518 20.8239 60 23.1131 60 25.5H59.993Z" fill="#8058BF"></path><path d="M49.2242 37.5H25.7758C23.5524 37.5 21.75 39.3452 21.75 41.6213V41.6287C21.75 43.9048 23.5524 45.75 25.7758 45.75H49.2242C51.4476 45.75 53.25 43.9048 53.25 41.6287V41.6213C53.25 39.3452 51.4476 37.5 49.2242 37.5Z" fill="#916FC8"></path></svg> 