<?xml version="1.0" encoding="UTF-8"?> <svg xmlns="http://www.w3.org/2000/svg" width="539" height="338" viewBox="0 0 539 338" fill="none"><path d="M432.538 82.296H69.7391V269.727H432.538V82.296Z" fill="#D5C7EA"></path><path d="M298.808 147.873H296.612V144.612H293.328V142.443H298.808V147.873Z" fill="#8058BF"></path><path d="M284.366 144.612H275.397V142.436H284.366V144.612ZM266.435 144.612H257.473V142.436H266.435V144.612ZM248.511 144.612H239.549V142.436H248.511V144.612ZM230.587 144.612H221.625V142.436H230.587V144.612ZM212.664 144.612H203.702V142.436H212.664V144.612ZM194.74 144.612H185.771V142.436H194.74V144.612ZM176.809 144.612H167.84V142.436H176.802L176.809 144.612ZM158.885 144.612H149.923V142.436H158.885V144.612ZM140.961 144.612H131.999V142.436H140.961V144.612Z" fill="#8058BF"></path><path d="M119.746 147.873H117.557V142.443H123.037V144.612H119.746V147.873Z" fill="#8058BF"></path><path d="M119.746 236.553H117.557V227.688H119.746V236.553ZM119.746 218.816H117.557V209.951H119.746V218.816ZM119.746 201.078H117.557V192.213H119.746V201.078ZM119.746 183.341H117.557V174.461H119.746V183.341ZM119.746 165.603H117.557V156.738H119.746V165.603Z" fill="#8058BF"></path><path d="M123.037 250.855H117.557V245.426H119.746V248.679H123.037V250.855Z" fill="#8058BF"></path><path d="M284.366 250.849H275.404V248.679H284.366V250.849ZM266.435 250.849H257.473V248.679H266.435V250.849ZM248.511 250.849H239.549V248.679H248.511V250.849ZM230.587 250.849H221.625V248.679H230.587V250.849ZM212.664 250.849H203.702V248.679H212.664V250.849ZM194.74 250.849H185.771V248.679H194.74V250.849ZM176.809 250.849H167.84V248.679H176.802L176.809 250.849ZM158.885 250.849H149.923V248.679H158.885V250.849ZM140.961 250.849H131.999V248.679H140.961V250.849Z" fill="#8058BF"></path><path d="M298.808 250.855H293.328V248.679H296.612V245.426H298.808V250.855Z" fill="#8058BF"></path><path d="M298.801 236.553H296.612V227.688H298.801V236.553ZM298.801 218.816H296.612V209.951H298.801V218.816ZM298.801 201.078H296.612V192.213H298.801V201.078ZM298.801 183.341H296.612V174.461H298.801V183.341ZM298.801 165.603H296.612V156.738H298.801V165.603Z" fill="#8058BF"></path><path d="M181.011 201.295C181.012 204.923 179.928 208.47 177.894 211.487C175.861 214.504 172.97 216.855 169.588 218.244C166.205 219.633 162.483 219.997 158.891 219.29C155.3 218.582 152.001 216.835 149.412 214.27C146.823 211.705 145.06 208.436 144.346 204.878C143.632 201.32 143.999 197.632 145.401 194.281C146.803 190.929 149.177 188.065 152.222 186.051C155.267 184.036 158.846 182.962 162.508 182.963C167.415 182.965 172.12 184.897 175.589 188.334C179.059 191.772 181.009 196.434 181.011 201.295V201.295Z" fill="white"></path><path d="M281.4 183.418H199.217V188.679H281.4V183.418Z" fill="white"></path><path d="M281.4 198.972H199.217V204.234H281.4V198.972Z" fill="white"></path><path d="M244.698 214.373H199.217V219.635H244.698V214.373Z" fill="white"></path><path d="M533.576 124.152H342.495C339.499 124.152 337.071 126.558 337.071 129.526V222.503C337.071 225.471 339.499 227.877 342.495 227.877H533.576C536.572 227.877 539 225.471 539 222.503V129.526C539 126.558 536.572 124.152 533.576 124.152Z" fill="#AA90D4"></path><path opacity="0.67" d="M351.457 220.271H523.068C523.068 220.271 517.347 180.591 508.343 168.535C499.339 156.479 491.782 173.118 481.803 192.892C471.825 212.665 451.125 221.58 436.033 201.82C420.942 182.06 414.141 175.77 397.318 186.384C380.496 196.999 367.375 188.071 361.775 174.321C356.174 160.572 351.457 160.81 351.457 160.81V220.271Z" fill="white"></path><path opacity="0.28" d="M351.457 220.271C351.457 220.271 359.366 220.635 365.701 211.952C372.036 203.268 373.731 190.002 380.532 185.902C387.333 181.801 393.681 185.902 403.18 203.086C412.679 220.271 427.523 212.183 433.851 195.068C440.179 177.953 443.103 169.738 453.576 168.773C464.049 167.807 470.617 180.591 474.268 192.892C477.919 205.193 487.418 209.3 496.909 204.234C506.401 199.168 523.082 220.271 523.082 220.271H351.457Z" fill="white"></path><path d="M354.769 139.105C353.897 139.103 353.062 138.759 352.446 138.148C351.831 137.536 351.485 136.708 351.485 135.845V135.845C351.485 134.982 351.831 134.154 352.447 133.544C353.062 132.934 353.898 132.591 354.769 132.591V132.591C355.64 132.591 356.476 132.934 357.093 133.544C357.71 134.153 358.058 134.981 358.06 135.845V135.845C358.06 136.709 357.713 137.539 357.096 138.15C356.479 138.761 355.642 139.105 354.769 139.105Z" fill="white"></path><path d="M435.115 133.92H366.217V137.783H435.115V133.92Z" fill="white"></path><path d="M354.769 150.86C353.898 150.86 353.062 150.518 352.447 149.907C351.831 149.297 351.485 148.469 351.485 147.607V147.607C351.485 146.743 351.831 145.915 352.446 145.303C353.062 144.692 353.897 144.348 354.769 144.346V144.346C355.642 144.346 356.479 144.689 357.096 145.301C357.713 145.912 358.06 146.742 358.06 147.607V147.607C358.058 148.47 357.71 149.298 357.093 149.908C356.476 150.518 355.64 150.86 354.769 150.86V150.86Z" fill="white"></path><path d="M419.289 145.675H366.217V149.538H419.289V145.675Z" fill="white"></path><path d="M303.935 39.124H41.7234V122.83H303.935V39.124Z" fill="#EEE9F6"></path><path d="M303.935 12.5283H41.7234V31.3433H303.935V12.5283Z" fill="#EEE9F6"></path><path d="M95.4667 21.9253C95.4667 22.6172 95.2595 23.2936 94.8715 23.869C94.4835 24.4443 93.932 24.8927 93.2868 25.1575C92.6416 25.4223 91.9316 25.4916 91.2466 25.3566C90.5616 25.2216 89.9325 24.8884 89.4386 24.3991C88.9448 23.9099 88.6085 23.2865 88.4722 22.6078C88.336 21.9292 88.406 21.2257 88.6733 20.5865C88.9405 19.9472 89.3931 19.4008 89.9738 19.0164C90.5545 18.6319 91.2372 18.4268 91.9356 18.4268C92.8721 18.4268 93.7701 18.7954 94.4323 19.4515C95.0946 20.1076 95.4667 20.9974 95.4667 21.9253Z" fill="white"></path><path d="M78.7505 21.9253C78.7505 22.6172 78.5434 23.2936 78.1554 23.869C77.7674 24.4443 77.2159 24.8927 76.5707 25.1575C75.9255 25.4223 75.2154 25.4916 74.5305 25.3566C73.8455 25.2216 73.2163 24.8884 72.7225 24.3991C72.2287 23.9099 71.8924 23.2865 71.7561 22.6078C71.6199 21.9292 71.6899 21.2257 71.9572 20.5865C72.2244 19.9472 72.677 19.4008 73.2577 19.0164C73.8384 18.6319 74.5211 18.4268 75.2195 18.4268C76.156 18.4268 77.054 18.7954 77.7162 19.4515C78.3784 20.1076 78.7505 20.9974 78.7505 21.9253Z" fill="#D5C7EA"></path><path d="M62.0341 21.9253C62.0341 22.6172 61.8271 23.2936 61.4391 23.869C61.0511 24.4443 60.4996 24.8927 59.8544 25.1575C59.2092 25.4223 58.4992 25.4916 57.8142 25.3566C57.1292 25.2216 56.5001 24.8884 56.0063 24.3991C55.5124 23.9099 55.1761 23.2865 55.0399 22.6078C54.9036 21.9292 54.9735 21.2257 55.2407 20.5865C55.508 19.9472 55.9606 19.4008 56.5413 19.0164C57.1219 18.6319 57.8046 18.4268 58.503 18.4268C59.4395 18.4268 60.3378 18.7954 61 19.4515C61.6622 20.1076 62.0341 20.9974 62.0341 21.9253V21.9253Z" fill="#AA90D4"></path><path d="M283.109 55.875C277.586 50.4021 270.319 46.9957 262.545 46.2361C254.772 45.4766 246.973 47.4109 240.478 51.7096C233.982 56.0082 229.192 62.4052 226.923 69.8107C224.654 77.2162 225.047 85.1721 228.035 92.3228C231.022 99.4735 236.42 105.377 243.308 109.027C250.196 112.677 258.148 113.847 265.809 112.34C273.471 110.832 280.368 106.739 285.325 100.758C290.282 94.7772 292.993 87.2783 292.996 79.5392C293.005 75.1435 292.136 70.7895 290.439 66.7281C288.743 62.6667 286.251 58.9781 283.109 55.875V55.875ZM270.15 98.1934C266.01 100.571 261.193 101.528 256.448 100.916C251.703 100.304 247.294 98.1574 243.906 94.8091C240.519 91.4609 238.341 87.0983 237.711 82.3984C237.082 77.6985 238.036 72.9242 240.425 68.8163C242.814 64.7085 246.505 61.4969 250.925 59.6799C255.345 57.8629 260.246 57.5422 264.869 58.7675C269.492 59.9929 273.577 62.6957 276.49 66.4566C279.404 70.2175 280.983 74.826 280.983 79.5671C280.996 83.3426 280.001 87.0543 278.098 90.3255C276.195 93.5968 273.453 96.3112 270.15 98.1934V98.1934Z" fill="#AA90D4"></path><path d="M293.017 79.5393C293.02 85.4044 291.466 91.1672 288.511 96.2492C285.556 101.331 281.303 105.554 276.181 108.493L270.15 98.1935C273.033 96.5383 275.492 94.2485 277.34 91.501C279.187 88.7536 280.371 85.6222 280.802 82.3487C281.233 79.0753 280.898 75.7476 279.824 72.6228C278.749 69.498 276.964 66.6598 274.606 64.3276L283.081 55.9312C286.225 59.0235 288.722 62.7012 290.427 66.7527C292.132 70.8042 293.012 75.1496 293.017 79.5393V79.5393Z" fill="white"></path><path d="M276.181 108.493C271.512 111.166 266.266 112.694 260.88 112.948C255.494 113.202 250.125 112.175 245.222 109.953C240.318 107.731 236.023 104.379 232.694 100.176C229.366 95.973 227.101 91.0418 226.089 85.7944L237.904 83.5483C238.547 86.9313 240 90.1122 242.14 92.8241C244.28 95.536 247.045 97.7 250.204 99.1344C253.362 100.569 256.822 101.232 260.292 101.068C263.763 100.905 267.143 99.9186 270.15 98.1933L276.181 108.493Z" fill="#D5C7EA"></path><path d="M173.2 55.5181H55.6641V60.9548H173.2V55.5181Z" fill="white"></path><path d="M173.2 77.9508H55.6641V83.3876H173.2V77.9508Z" fill="white"></path><path d="M173.2 100.383H55.6641V105.82H173.2V100.383Z" fill="white"></path><path d="M314.711 23.2149C303.59 12.2383 289.423 4.76356 274.001 1.73568C258.578 -1.29219 242.593 0.262816 228.065 6.20409C213.537 12.1454 201.12 22.2061 192.384 35.1143C183.647 48.0224 178.983 63.1983 178.982 78.7232C178.932 96.7512 185.216 114.238 196.762 128.204L196.679 128.112L190.829 133.889C189.278 135.419 187.357 136.534 185.248 137.127L173.556 140.407C171.449 140.999 169.53 142.112 167.98 143.641L103 207.806V232.099H126.605L192.083 167.453C192.774 166.769 193.383 166.008 193.897 165.186C194.099 164.864 194.296 164.536 194.467 164.199C194.836 163.476 195.136 162.72 195.363 161.942L196.778 157.015L198.685 150.4C198.794 150.026 198.923 149.658 199.063 149.299C199.203 148.941 199.302 148.726 199.436 148.445C199.571 148.164 199.727 147.862 199.887 147.58C199.97 147.437 200.058 147.294 200.147 147.156C200.235 147.018 200.4 146.767 200.535 146.578C200.961 145.976 201.438 145.411 201.96 144.889L206.236 140.668L207.749 139.174C207.36 138.852 206.982 138.514 206.593 138.181C218.123 147.996 232.265 154.336 247.337 156.447C262.41 158.559 277.779 156.352 291.619 150.091C305.459 143.83 317.187 133.777 325.409 121.128C333.631 108.478 338.001 93.7637 338 78.7335C338.029 68.4187 335.986 58.2006 331.988 48.6708C327.991 39.1409 322.118 30.4887 314.711 23.2149V23.2149ZM258.493 137.88C246.645 137.881 235.062 134.413 225.21 127.914C215.357 121.416 207.678 112.179 203.143 101.371C198.608 90.5638 197.421 78.6713 199.732 67.1978C202.043 55.7242 207.748 45.1849 216.126 36.9127C224.504 28.6404 235.178 23.0068 246.799 20.7242C258.42 18.4417 270.466 19.6126 281.413 24.0891C292.359 28.5656 301.716 36.1465 308.299 45.8731C314.882 55.5998 318.395 67.0353 318.395 78.7335C318.376 94.4133 312.059 109.446 300.83 120.533C289.6 131.621 274.375 137.859 258.493 137.88V137.88Z" fill="#916FC8"></path><path fill-rule="evenodd" clip-rule="evenodd" d="M451.471 66.003C451.465 66.1012 451.448 66.1983 451.42 66.2923C451.391 66.4112 451.384 66.5269 451.362 66.6362C451.339 66.7455 451.362 66.7937 451.326 66.8837C451.259 67.1376 451.23 67.4204 451.166 67.6743C451.114 67.8768 451.114 68.0664 451.063 68.2721C451.011 68.4778 450.992 68.706 450.934 68.9149C450.796 69.4323 450.729 69.9852 450.584 70.493C450.526 70.7115 450.51 70.914 450.446 71.1358C450.381 71.3575 450.352 71.5793 450.278 71.7978C450.066 72.4406 449.938 73.0995 449.709 73.7101C449.645 73.8837 449.616 74.0508 449.542 74.2276C449.398 74.5747 449.282 74.9379 449.137 75.2818C448.85 75.9481 448.515 76.5926 448.134 77.2102C447.308 78.4858 446.201 79.5555 444.897 80.3374C444.177 80.7556 443.425 81.1157 442.647 81.414C442.474 81.4847 442.29 81.5233 442.117 81.594C441.856 81.7033 441.58 81.7708 441.297 81.864C440.583 82.105 439.812 82.2722 439.063 82.4811C438.706 82.5839 438.343 82.6289 438.002 82.7286C437.899 82.7575 437.812 82.7511 437.71 82.78C437.276 82.9053 436.793 82.9471 436.35 83.0725L436.028 83.1207C435.562 83.2396 435.064 83.2814 434.582 83.3971C434.437 83.4356 434.283 83.4421 434.145 83.4774C434.093 83.4774 434.023 83.4774 434 83.516H434.051C434.163 83.5473 434.277 83.5667 434.392 83.5738C434.714 83.6542 435.067 83.6735 435.395 83.7538C435.607 83.8052 435.826 83.8213 436.038 83.8792C436.681 84.0463 437.391 84.117 438.031 84.3002C438.221 84.3516 438.394 84.358 438.584 84.4159C438.848 84.4898 439.124 84.5252 439.384 84.6055C440.075 84.8144 440.773 84.9623 441.442 85.1808C442.011 85.3672 442.576 85.5504 443.107 85.7818C443.37 85.8911 443.631 86.0293 443.885 86.1386C444.186 86.2664 444.478 86.4145 444.759 86.5821C445.151 86.8232 445.521 87.0771 445.887 87.3374C446.074 87.4756 446.251 87.6299 446.437 87.7745C446.505 87.8259 446.546 87.8998 446.614 87.9513C446.774 88.0747 446.918 88.2184 447.041 88.3787C447.093 88.443 447.173 88.4944 447.225 88.5619C447.347 88.7194 447.491 88.8576 447.61 89.0247C448.211 89.8439 448.72 90.7266 449.128 91.657C449.465 92.4219 449.709 93.2415 449.986 94.0642C450.221 94.7777 450.359 95.5266 450.561 96.2594C450.642 96.5422 450.677 96.8347 450.751 97.1175C450.815 97.3361 450.815 97.5546 450.883 97.7796C450.925 97.9403 450.941 98.1203 450.982 98.297C451.137 98.8499 451.179 99.4605 451.326 100.026C451.384 100.267 451.397 100.521 451.455 100.753C451.455 100.81 451.455 100.971 451.506 101V100.949C451.544 100.821 451.569 100.689 451.58 100.556C451.651 100.267 451.667 99.9522 451.748 99.6469C451.799 99.4444 451.812 99.2195 451.87 99.0041C452.037 98.3613 452.104 97.68 452.278 97.05C452.329 96.8733 452.336 96.7061 452.381 96.5326C452.452 96.2787 452.49 96.0151 452.561 95.7548C452.773 95.0284 452.924 94.286 453.165 93.5789C453.892 91.4127 454.715 89.6193 456.161 88.1698C456.419 87.9002 456.696 87.6499 456.99 87.421C457.696 86.882 458.459 86.4238 459.266 86.055C460.08 85.6983 460.938 85.3929 461.838 85.0908C462.587 84.8466 463.378 84.6923 464.156 84.4737C464.461 84.387 464.783 84.3516 465.081 84.2648C465.29 84.2038 465.486 84.1973 465.699 84.1395C466.264 83.9788 466.885 83.9274 467.457 83.7827C467.634 83.741 467.807 83.7313 467.975 83.6895C468.216 83.622 468.47 83.6156 468.701 83.5578C468.769 83.5578 468.971 83.5353 469 83.4999H468.955C468.907 83.471 468.826 83.4999 468.752 83.4646C468.598 83.426 468.431 83.4196 468.264 83.3778C467.743 83.2396 467.168 83.201 466.657 83.0564C466.541 83.0371 466.419 83.0146 466.3 82.9985C465.937 82.8989 465.538 82.8539 465.175 82.7511C465.065 82.7221 464.963 82.7221 464.853 82.6932C464.554 82.6129 464.249 82.5711 463.944 82.4843C463.69 82.4104 463.4 82.3525 463.153 82.2722C463.056 82.2432 462.979 82.2432 462.883 82.2143C462.651 82.1404 462.404 82.089 462.169 82.0118C461.88 81.9154 461.568 81.8222 461.282 81.7194C461.066 81.6455 460.854 81.5972 460.639 81.5073C460.363 81.3915 460.073 81.2983 459.797 81.1859C459.572 81.0926 459.347 80.9705 459.128 80.8645C458.99 80.8002 458.845 80.7488 458.72 80.6748C458.479 80.5302 458.218 80.4081 457.977 80.2538C457.63 80.0352 457.296 79.7878 456.968 79.5499C456.807 79.431 456.669 79.28 456.502 79.1546C456.473 79.1193 456.438 79.0839 456.409 79.055C456.246 78.9267 456.1 78.78 455.971 78.6179L455.869 78.5247C455.759 78.3768 455.621 78.2483 455.512 78.1004C455.258 77.7598 455.004 77.4126 454.772 77.0463C454.403 76.4285 454.081 75.7839 453.808 75.1179C453.692 74.8415 453.596 74.5586 453.487 74.2822C453.435 74.1665 453.422 74.0412 453.371 73.9255C453.239 73.6041 453.152 73.2505 453.049 72.9131C452.831 72.2446 452.699 71.5407 452.513 70.8561C452.455 70.6601 452.445 70.4801 452.387 70.2841C452.207 69.6413 452.133 68.9727 451.966 68.3267C451.908 68.0953 451.902 67.8671 451.844 67.6357C451.786 67.4043 451.764 67.1633 451.706 66.9383C451.683 66.8515 451.706 66.7776 451.667 66.6908C451.632 66.5526 451.625 66.4016 451.587 66.2537C451.565 66.1727 451.551 66.0899 451.545 66.0062C451.521 65.9992 451.496 65.9981 451.471 66.003Z" fill="#D5C7EA"></path><path fill-rule="evenodd" clip-rule="evenodd" d="M316.967 298.003C316.961 298.116 316.941 298.227 316.908 298.334C316.875 298.47 316.868 298.602 316.842 298.727C316.816 298.852 316.842 298.907 316.802 299.01C316.724 299.3 316.691 299.623 316.618 299.913C316.559 300.145 316.559 300.362 316.5 300.597C316.442 300.832 316.42 301.093 316.353 301.331C316.195 301.923 316.118 302.554 315.953 303.135C315.887 303.385 315.868 303.616 315.795 303.869C315.722 304.123 315.688 304.376 315.604 304.626C315.361 305.361 315.215 306.114 314.954 306.812C314.88 307.01 314.847 307.201 314.763 307.403C314.597 307.8 314.465 308.215 314.3 308.608C313.972 309.369 313.589 310.106 313.154 310.812C312.209 312.269 310.944 313.492 309.454 314.386C308.631 314.864 307.771 315.275 306.882 315.616C306.684 315.697 306.475 315.741 306.276 315.822C305.979 315.947 305.663 316.024 305.339 316.13C304.524 316.406 303.642 316.597 302.786 316.836C302.378 316.953 301.963 317.004 301.574 317.118C301.456 317.151 301.357 317.144 301.24 317.177C300.744 317.32 300.193 317.368 299.686 317.511L299.318 317.566C298.785 317.702 298.216 317.75 297.665 317.882C297.5 317.926 297.323 317.934 297.165 317.974C297.107 317.974 297.026 317.974 297 318.018H297.059C297.186 318.054 297.316 318.076 297.448 318.084C297.816 318.176 298.22 318.198 298.594 318.29C298.837 318.349 299.087 318.367 299.329 318.433C300.064 318.624 300.876 318.705 301.607 318.915C301.824 318.973 302.022 318.981 302.239 319.047C302.54 319.131 302.856 319.172 303.154 319.263C303.943 319.502 304.741 319.671 305.505 319.921C306.155 320.134 306.802 320.343 307.408 320.608C307.709 320.733 308.007 320.891 308.297 321.016C308.641 321.162 308.975 321.331 309.296 321.522C309.744 321.798 310.167 322.088 310.586 322.386C310.799 322.544 311.001 322.72 311.214 322.885C311.291 322.944 311.339 323.028 311.416 323.087C311.599 323.228 311.763 323.392 311.904 323.576C311.963 323.649 312.055 323.708 312.114 323.785C312.253 323.965 312.419 324.123 312.555 324.314C313.241 325.25 313.823 326.259 314.289 327.322C314.675 328.196 314.954 329.133 315.27 330.073C315.538 330.889 315.696 331.745 315.927 332.582C316.019 332.905 316.06 333.24 316.144 333.563C316.217 333.813 316.217 334.062 316.295 334.32C316.342 334.503 316.361 334.709 316.409 334.911C316.585 335.543 316.633 336.241 316.802 336.887C316.868 337.163 316.882 337.453 316.949 337.717C316.949 337.783 316.949 337.967 317.007 338V337.941C317.05 337.795 317.079 337.645 317.092 337.493C317.173 337.163 317.191 336.803 317.283 336.454C317.342 336.222 317.356 335.965 317.422 335.719C317.614 334.984 317.691 334.206 317.889 333.486C317.948 333.284 317.955 333.093 318.007 332.894C318.087 332.604 318.132 332.303 318.212 332.005C318.455 331.175 318.627 330.327 318.903 329.519C319.733 327.043 320.674 324.994 322.327 323.337C322.622 323.029 322.938 322.743 323.275 322.481C324.081 321.865 324.953 321.341 325.876 320.92C326.805 320.512 327.786 320.163 328.815 319.818C329.671 319.539 330.575 319.363 331.464 319.113C331.813 319.014 332.18 318.973 332.522 318.874C332.76 318.804 332.985 318.797 333.227 318.731C333.874 318.547 334.583 318.488 335.237 318.323C335.439 318.275 335.637 318.264 335.828 318.217C336.104 318.139 336.394 318.132 336.658 318.066C336.735 318.066 336.967 318.04 337 318H336.949C336.893 317.967 336.802 318 336.717 317.959C336.541 317.915 336.35 317.908 336.159 317.86C335.564 317.702 334.906 317.658 334.322 317.493C334.19 317.471 334.05 317.445 333.914 317.427C333.499 317.313 333.043 317.262 332.628 317.144C332.503 317.111 332.386 317.111 332.261 317.078C331.919 316.986 331.57 316.938 331.221 316.839C330.931 316.755 330.6 316.689 330.317 316.597C330.207 316.564 330.119 316.564 330.009 316.531C329.744 316.446 329.461 316.387 329.193 316.299C328.863 316.189 328.506 316.083 328.179 315.965C327.933 315.881 327.691 315.825 327.445 315.723C327.129 315.59 326.798 315.484 326.482 315.355C326.225 315.249 325.968 315.109 325.718 314.988C325.56 314.914 325.395 314.856 325.251 314.771C324.976 314.606 324.678 314.466 324.403 314.29C324.006 314.04 323.624 313.757 323.249 313.486C323.065 313.35 322.907 313.177 322.716 313.034C322.683 312.993 322.643 312.953 322.61 312.92C322.425 312.773 322.257 312.606 322.11 312.42L321.993 312.314C321.868 312.145 321.71 311.998 321.585 311.829C321.295 311.44 321.004 311.043 320.74 310.624C320.318 309.918 319.949 309.182 319.638 308.42C319.506 308.105 319.395 307.781 319.27 307.465C319.212 307.333 319.197 307.19 319.138 307.058C318.988 306.69 318.888 306.286 318.771 305.901C318.521 305.137 318.37 304.332 318.157 303.55C318.091 303.326 318.08 303.12 318.014 302.896C317.808 302.161 317.724 301.397 317.533 300.659C317.467 300.395 317.459 300.134 317.393 299.869C317.327 299.605 317.301 299.329 317.235 299.072C317.209 298.973 317.235 298.889 317.191 298.79C317.151 298.632 317.143 298.459 317.099 298.29C317.074 298.197 317.058 298.103 317.051 298.007C317.024 297.999 316.995 297.998 316.967 298.003Z" fill="#AA90D4"></path><path fill-rule="evenodd" clip-rule="evenodd" d="M17.4711 54.003C17.4654 54.1012 17.4482 54.1983 17.4196 54.2923C17.3907 54.4112 17.3843 54.5269 17.3618 54.6362C17.3393 54.7455 17.3618 54.7937 17.3264 54.8837C17.2589 55.1376 17.23 55.4204 17.1657 55.6743C17.1143 55.8768 17.1143 56.0664 17.0628 56.2721C17.0114 56.4778 16.9921 56.706 16.9342 56.9149C16.796 57.4323 16.7285 57.9852 16.5839 58.493C16.526 58.7115 16.5099 58.914 16.4456 59.1358C16.3813 59.3575 16.3524 59.5793 16.2785 59.7978C16.0663 60.4406 15.9377 61.0995 15.7095 61.7101C15.6452 61.8837 15.6163 62.0508 15.5423 62.2276C15.3977 62.5747 15.282 62.9379 15.1373 63.2818C14.8504 63.9481 14.5152 64.5926 14.1344 65.2102C13.308 66.4858 12.2008 67.5555 10.8973 68.3374C10.1772 68.7556 9.42469 69.1157 8.64713 69.414C8.47355 69.4847 8.29032 69.5233 8.11673 69.594C7.85636 69.7033 7.5799 69.7708 7.29702 69.864C6.58339 70.105 5.8119 70.2722 5.06291 70.4811C4.7061 70.5839 4.34285 70.6289 4.00211 70.7286C3.89925 70.7575 3.81245 70.7511 3.70959 70.78C3.27562 70.9053 2.79344 70.9471 2.34983 71.0725L2.02838 71.1207C1.56227 71.2396 1.06401 71.2814 0.581832 71.3971C0.437178 71.4356 0.282879 71.4421 0.144654 71.4774C0.0932209 71.4774 0.0225018 71.4774 0 71.516H0.0514339C0.162643 71.5473 0.276865 71.5667 0.392175 71.5738C0.71363 71.6542 1.06723 71.6735 1.39511 71.7538C1.60727 71.8052 1.82586 71.8213 2.03802 71.8792C2.68093 72.0463 3.39135 72.117 4.03104 72.3002C4.2207 72.3516 4.39429 72.358 4.58394 72.4159C4.84754 72.4898 5.12399 72.5252 5.38437 72.6055C6.0755 72.8144 6.77305 72.9623 7.44168 73.1808C8.01065 73.3672 8.57641 73.5504 9.10681 73.7818C9.37041 73.8911 9.63079 74.0293 9.88473 74.1386C10.1859 74.2664 10.4781 74.4145 10.7591 74.5821C11.1513 74.8232 11.5209 75.0771 11.8874 75.3374C12.0738 75.4756 12.2506 75.6299 12.4371 75.7745C12.5046 75.8259 12.5464 75.8998 12.6139 75.9513C12.7743 76.0747 12.918 76.2184 13.0414 76.3787C13.0929 76.443 13.1732 76.4944 13.2246 76.5619C13.3468 76.7194 13.4915 76.8576 13.6104 77.0247C14.2111 77.8439 14.7199 78.7266 15.1277 79.657C15.4652 80.4219 15.7095 81.2415 15.9859 82.0642C16.2206 82.7777 16.3588 83.5266 16.5614 84.2594C16.6417 84.5422 16.6771 84.8347 16.751 85.1175C16.8153 85.3361 16.8153 85.5546 16.8828 85.7796C16.9246 85.9403 16.9407 86.1203 16.9825 86.297C17.1368 86.8499 17.1785 87.4605 17.3264 88.0262C17.3843 88.2672 17.3971 88.5211 17.455 88.7525C17.455 88.8104 17.455 88.9711 17.5064 89V88.9486C17.5439 88.8206 17.5687 88.6893 17.5804 88.5565C17.6511 88.2672 17.6672 87.9522 17.7475 87.6469C17.7989 87.4444 17.8118 87.2195 17.8697 87.0041C18.0368 86.3613 18.1043 85.68 18.2779 85.05C18.3294 84.8733 18.3358 84.7061 18.3808 84.5326C18.4515 84.2787 18.4901 84.0151 18.5608 83.7548C18.773 83.0284 18.924 82.286 19.1651 81.5789C19.8916 79.4127 20.7145 77.6193 22.1611 76.1698C22.4188 75.9002 22.696 75.6499 22.9904 75.421C23.6956 74.882 24.459 74.4238 25.2663 74.055C26.0796 73.6983 26.9379 73.3929 27.838 73.0908C28.587 72.8466 29.3778 72.6923 30.1557 72.4737C30.4611 72.387 30.7825 72.3516 31.0815 72.2648C31.2904 72.2038 31.4865 72.1973 31.6987 72.1395C32.2644 71.9788 32.8848 71.9274 33.457 71.7827C33.6338 71.741 33.8074 71.7313 33.9746 71.6895C34.2156 71.622 34.4696 71.6156 34.701 71.5578C34.7685 71.5578 34.9711 71.5353 35 71.4999H34.955C34.9068 71.471 34.8264 71.4999 34.7525 71.4646C34.5982 71.426 34.431 71.4196 34.2639 71.3778C33.7431 71.2396 33.1677 71.201 32.6566 71.0564C32.5409 71.0371 32.4187 71.0146 32.2998 70.9985C31.9365 70.8989 31.5379 70.8539 31.1747 70.7511C31.0654 70.7221 30.9625 70.7221 30.8532 70.6932C30.5543 70.6129 30.2489 70.5711 29.9435 70.4843C29.6896 70.4104 29.4003 70.3525 29.1527 70.2722C29.0563 70.2432 28.9791 70.2432 28.8827 70.2143C28.6513 70.1404 28.4037 70.089 28.1691 70.0118C27.8798 69.9154 27.568 69.8222 27.2819 69.7194C27.0665 69.6455 26.8543 69.5972 26.639 69.5073C26.3625 69.3915 26.0732 69.2983 25.7967 69.1859C25.5717 69.0926 25.3467 68.9705 25.1281 68.8645C24.9899 68.8002 24.8452 68.7488 24.7199 68.6748C24.4788 68.5302 24.2184 68.4081 23.9773 68.2538C23.6301 68.0352 23.2958 67.7878 22.9679 67.5499C22.8072 67.431 22.669 67.28 22.5018 67.1546C22.4729 67.1193 22.4375 67.0839 22.4086 67.055C22.2465 66.9267 22.0998 66.78 21.9714 66.6179L21.8686 66.5247C21.7593 66.3768 21.621 66.2483 21.5118 66.1004C21.2578 65.7598 21.0039 65.4126 20.7724 65.0463C20.4031 64.4285 20.0807 63.7839 19.808 63.1179C19.6923 62.8415 19.5959 62.5586 19.4866 62.2822C19.4352 62.1665 19.4223 62.0412 19.3709 61.9255C19.2391 61.6041 19.1523 61.2505 19.0494 60.9131C18.8308 60.2446 18.699 59.5407 18.5126 58.8561C18.4547 58.6601 18.4451 58.4801 18.3872 58.2841C18.2072 57.6413 18.1333 56.9727 17.9661 56.3267C17.9082 56.0953 17.9018 55.8671 17.844 55.6357C17.7861 55.4043 17.7636 55.1633 17.7057 54.9383C17.6832 54.8515 17.7057 54.7776 17.6672 54.6908C17.6318 54.5526 17.6254 54.4016 17.5868 54.2537C17.565 54.1727 17.551 54.0899 17.545 54.0062C17.521 53.9992 17.4956 53.9981 17.4711 54.003Z" fill="#EEE9F6"></path></svg> 