<?xml version="1.0" encoding="UTF-8"?> <svg xmlns="http://www.w3.org/2000/svg" width="75" height="75" viewBox="0 0 75 75" fill="none"><path d="M3 75V20.2937H38.4444L48.4809 30.4093V75H3Z" fill="#ECE7F5"></path><path d="M7.35742 71.1006V10.3167H46.7393L57.891 21.5562V71.1006H7.35742Z" fill="#D5C7EA"></path><path d="M11.4326 67.5416V0H55.1926L67.5834 12.4884V67.5416H11.4326Z" fill="#AA90D4"></path><path d="M58.0837 33.7673H20.9321V36.9033H58.0837V33.7673Z" fill="white"></path><path d="M58.0837 43.8899H20.9321V47.0259H58.0837V43.8899Z" fill="white"></path><path d="M58.0837 54.0195H20.9321V57.1555H58.0837V54.0195Z" fill="white"></path><path d="M40.744 16.2139C38.2797 15.3883 37.0887 14.868 37.0887 13.5567C37.0887 12.1691 38.6239 11.614 39.5945 11.614C40.176 11.5962 40.7475 11.7692 41.223 12.1071C41.6985 12.4449 42.0521 12.9293 42.2309 13.4873L44.4199 12.5507C44.1353 11.7476 43.6434 11.0356 42.9949 10.488C42.3463 9.94042 41.5646 9.57713 40.7303 9.43553V7.72876H38.3072V9.4841C37.3133 9.63723 36.4049 10.1385 35.7414 10.8998C35.0779 11.6612 34.7019 12.6339 34.6794 13.6469C34.6794 16.8176 37.7978 17.7126 39.3191 18.2676C41.5081 19.0516 42.4788 19.7662 42.4788 21.1053C42.4788 22.6872 41.0263 23.3532 39.7253 23.3532C37.1989 23.3532 36.4761 20.7445 36.3935 20.4392L34.0942 21.3689C34.3393 22.3862 34.8608 23.3145 35.6001 24.0498C36.3393 24.7851 37.2671 25.2983 38.2796 25.5317V27.3356H40.7027V25.6011C41.4255 25.4762 44.8881 24.7824 44.8881 21.1053C44.9156 19.0724 44.0758 17.3726 40.744 16.2139Z" fill="#FFB000"></path><path d="M55.1929 12.4884H67.5836L55.1929 0V12.4884Z" fill="#D5C7EA"></path></svg> 