<svg version="1.0" preserveAspectRatio="xMidYMid meet" viewBox="35.849999999999994 132.59999681760002 300.75 110.999997336" zoomAndPan="magnify" xmlns:xlink="http://www.w3.org/1999/xlink" xmlns="http://www.w3.org/2000/svg" style="max-height: 500px" width="300.75" height="110.999997336"><defs><g/><clipPath id="eb113820ce"><path clip-rule="nonzero" d="M 37.539062 135.316406 L 128.210938 135.316406 L 128.210938 239.5625 L 37.539062 239.5625 Z M 37.539062 135.316406"/></clipPath><clipPath id="c03a2f2fae"><path clip-rule="nonzero" d="M 56.167969 163 L 115 163 L 115 208.421875 L 56.167969 208.421875 Z M 56.167969 163"/></clipPath></defs><g clip-path="url(#eb113820ce)"><path fill-rule="nonzero" fill-opacity="1" d="M 121.378906 183.03125 C 119.296875 193.800781 115.335938 203.378906 109.601562 211.511719 C 103.019531 220.839844 93.996094 228.355469 82.757812 233.882812 C 71.625 228.359375 62.679688 220.851562 56.140625 211.527344 C 50.4375 203.390625 46.488281 193.804688 44.398438 183.03125 C 42.507812 173.289062 42.519531 164.378906 42.863281 158.625 C 42.976562 156.71875 43.132812 155.039062 43.292969 153.628906 C 46.277344 153.109375 50.265625 152.339844 54.722656 151.265625 C 62.5625 149.371094 73.410156 146.144531 82.917969 141.164062 C 92.425781 146.148438 103.25 149.375 111.070312 151.269531 C 115.515625 152.347656 119.460938 153.113281 122.425781 153.628906 C 122.589844 155.039062 122.75 156.722656 122.871094 158.644531 C 123.230469 164.398438 123.265625 173.296875 121.378906 183.03125 Z M 128.007812 158.328125 C 127.746094 154.121094 127.292969 150.933594 127 149.179688 C 124.414062 148.800781 118.960938 147.910156 112.289062 146.292969 C 104.082031 144.304688 92.46875 140.808594 82.917969 135.316406 C 73.375 140.804688 61.734375 144.300781 53.507812 146.285156 C 46.851562 147.890625 41.308594 148.796875 38.703125 149.179688 C 38.417969 150.921875 37.976562 154.082031 37.726562 158.320312 C 37.363281 164.371094 37.351562 173.738281 39.34375 184 C 41.570312 195.484375 45.804688 205.730469 51.921875 214.457031 C 59.40625 225.128906 69.773438 233.570312 82.746094 239.5625 C 95.832031 233.570312 106.28125 225.125 113.8125 214.453125 C 119.96875 205.726562 124.214844 195.484375 126.433594 184 C 128.421875 173.738281 128.386719 164.375 128.007812 158.328125" fill="#050606"/></g><g clip-path="url(#c03a2f2fae)"><path fill-rule="nonzero" fill-opacity="1" d="M 113.375 164.527344 C 111.519531 162.671875 108.507812 162.671875 106.648438 164.527344 L 76.480469 194.699219 L 64.757812 182.976562 C 62.898438 181.121094 59.886719 181.121094 58.03125 182.976562 C 56.171875 184.835938 56.171875 187.847656 58.03125 189.703125 L 76.480469 208.152344 L 79.84375 204.789062 L 113.375 171.253906 C 115.234375 169.398438 115.234375 166.386719 113.375 164.527344" fill="#1dd1a1"/></g><g fill-opacity="1" fill="#000000"><g transform="translate(133.74026, 179.892557)"><g><path d="M 10.078125 -3.34375 C 10.878906 -3.34375 11.507812 -3.507812 11.96875 -3.84375 C 12.4375 -4.175781 12.765625 -4.585938 12.953125 -5.078125 C 13.148438 -5.578125 13.273438 -6.09375 13.328125 -6.625 C 13.367188 -7.0625 13.597656 -7.28125 14.015625 -7.28125 L 17.84375 -7.28125 C 18.050781 -7.28125 18.21875 -7.203125 18.34375 -7.046875 C 18.46875 -6.898438 18.53125 -6.738281 18.53125 -6.5625 C 18.4375 -5.226562 18.101562 -4.039062 17.53125 -3 C 16.957031 -1.96875 16.070312 -1.15625 14.875 -0.5625 C 13.675781 0.0195312 12.097656 0.3125 10.140625 0.3125 C 8.023438 0.3125 6.351562 -0.0507812 5.125 -0.78125 C 3.894531 -1.519531 3.019531 -2.472656 2.5 -3.640625 C 1.976562 -4.804688 1.71875 -6.019531 1.71875 -7.28125 C 1.71875 -7.757812 1.726562 -8.21875 1.75 -8.65625 C 1.78125 -9.09375 1.8125 -9.578125 1.84375 -10.109375 C 1.875 -10.640625 1.890625 -11.296875 1.890625 -12.078125 C 1.890625 -12.859375 1.875 -13.515625 1.84375 -14.046875 C 1.8125 -14.578125 1.78125 -15.0625 1.75 -15.5 C 1.726562 -15.9375 1.71875 -16.394531 1.71875 -16.875 C 1.71875 -18.351562 1.988281 -19.660156 2.53125 -20.796875 C 3.070312 -21.929688 3.953125 -22.828125 5.171875 -23.484375 C 6.390625 -24.140625 8.046875 -24.46875 10.140625 -24.46875 C 12.097656 -24.46875 13.675781 -24.140625 14.875 -23.484375 C 16.070312 -22.828125 16.957031 -21.976562 17.53125 -20.9375 C 18.101562 -19.90625 18.4375 -18.804688 18.53125 -17.640625 C 18.53125 -17.429688 18.46875 -17.25 18.34375 -17.09375 C 18.21875 -16.945312 18.050781 -16.875 17.84375 -16.875 L 13.765625 -16.875 C 13.359375 -16.875 13.128906 -17.09375 13.078125 -17.53125 C 13.054688 -17.925781 12.96875 -18.378906 12.8125 -18.890625 C 12.664062 -19.410156 12.390625 -19.859375 11.984375 -20.234375 C 11.585938 -20.617188 11 -20.8125 10.21875 -20.8125 C 9.300781 -20.8125 8.625 -20.601562 8.1875 -20.1875 C 7.75 -19.78125 7.46875 -19.269531 7.34375 -18.65625 C 7.226562 -18.039062 7.171875 -17.445312 7.171875 -16.875 L 7.171875 -7.28125 C 7.171875 -7.070312 7.1875 -6.753906 7.21875 -6.328125 C 7.257812 -5.898438 7.363281 -5.457031 7.53125 -5 C 7.707031 -4.539062 8 -4.148438 8.40625 -3.828125 C 8.8125 -3.503906 9.367188 -3.34375 10.078125 -3.34375 Z M 10.078125 -3.34375"/></g></g></g><g fill-opacity="1" fill="#000000"><g transform="translate(153.170152, 179.892557)"><g><path d="M 18.53125 -16.875 C 18.53125 -16.394531 18.519531 -15.9375 18.5 -15.5 C 18.476562 -15.0625 18.453125 -14.578125 18.421875 -14.046875 C 18.398438 -13.515625 18.390625 -12.859375 18.390625 -12.078125 C 18.390625 -11.296875 18.398438 -10.640625 18.421875 -10.109375 C 18.453125 -9.578125 18.476562 -9.09375 18.5 -8.65625 C 18.519531 -8.21875 18.53125 -7.757812 18.53125 -7.28125 C 18.53125 -5.8125 18.265625 -4.503906 17.734375 -3.359375 C 17.210938 -2.222656 16.332031 -1.328125 15.09375 -0.671875 C 13.863281 -0.015625 12.210938 0.3125 10.140625 0.3125 C 8.023438 0.3125 6.351562 -0.0507812 5.125 -0.78125 C 3.894531 -1.519531 3.019531 -2.472656 2.5 -3.640625 C 1.976562 -4.804688 1.71875 -6.019531 1.71875 -7.28125 C 1.71875 -7.757812 1.726562 -8.21875 1.75 -8.65625 C 1.78125 -9.09375 1.8125 -9.578125 1.84375 -10.109375 C 1.875 -10.640625 1.890625 -11.296875 1.890625 -12.078125 C 1.890625 -12.859375 1.875 -13.515625 1.84375 -14.046875 C 1.8125 -14.578125 1.78125 -15.0625 1.75 -15.5 C 1.726562 -15.9375 1.71875 -16.394531 1.71875 -16.875 C 1.71875 -18.351562 1.988281 -19.660156 2.53125 -20.796875 C 3.070312 -21.929688 3.953125 -22.828125 5.171875 -23.484375 C 6.390625 -24.140625 8.046875 -24.46875 10.140625 -24.46875 C 12.234375 -24.46875 13.894531 -24.097656 15.125 -23.359375 C 16.363281 -22.628906 17.238281 -21.679688 17.75 -20.515625 C 18.269531 -19.359375 18.53125 -18.144531 18.53125 -16.875 Z M 10.078125 -3.34375 C 10.972656 -3.34375 11.640625 -3.550781 12.078125 -3.96875 C 12.515625 -4.382812 12.796875 -4.894531 12.921875 -5.5 C 13.046875 -6.113281 13.109375 -6.707031 13.109375 -7.28125 L 13.109375 -16.875 C 13.109375 -17.082031 13.085938 -17.398438 13.046875 -17.828125 C 13.003906 -18.253906 12.894531 -18.695312 12.71875 -19.15625 C 12.539062 -19.613281 12.253906 -20.003906 11.859375 -20.328125 C 11.472656 -20.648438 10.925781 -20.8125 10.21875 -20.8125 C 9.300781 -20.8125 8.625 -20.601562 8.1875 -20.1875 C 7.75 -19.78125 7.46875 -19.269531 7.34375 -18.65625 C 7.226562 -18.039062 7.171875 -17.445312 7.171875 -16.875 L 7.171875 -7.28125 C 7.171875 -7.070312 7.1875 -6.753906 7.21875 -6.328125 C 7.257812 -5.898438 7.363281 -5.457031 7.53125 -5 C 7.707031 -4.539062 8 -4.148438 8.40625 -3.828125 C 8.8125 -3.503906 9.367188 -3.34375 10.078125 -3.34375 Z M 10.078125 -3.34375"/></g></g></g><g fill-opacity="1" fill="#000000"><g transform="translate(173.117866, 179.892557)"><g><path d="M 25.71875 -24.15625 C 25.894531 -24.15625 26.050781 -24.085938 26.1875 -23.953125 C 26.332031 -23.816406 26.40625 -23.65625 26.40625 -23.46875 C 26.382812 -22.707031 26.347656 -21.375 26.296875 -19.46875 C 26.253906 -17.5625 26.234375 -15.097656 26.234375 -12.078125 C 26.234375 -9.085938 26.253906 -6.628906 26.296875 -4.703125 C 26.347656 -2.785156 26.382812 -1.445312 26.40625 -0.6875 C 26.40625 -0.507812 26.332031 -0.347656 26.1875 -0.203125 C 26.050781 -0.0664062 25.894531 0 25.71875 0 L 21.671875 0 C 21.492188 0 21.332031 -0.0664062 21.1875 -0.203125 C 21.050781 -0.347656 20.992188 -0.507812 21.015625 -0.6875 C 21.035156 -1.445312 21.066406 -2.785156 21.109375 -4.703125 C 21.160156 -6.628906 21.1875 -9.085938 21.1875 -12.078125 C 21.1875 -13.523438 21.179688 -14.84375 21.171875 -16.03125 C 21.160156 -17.21875 21.144531 -18.28125 21.125 -19.21875 C 21.125 -19.40625 21.035156 -19.503906 20.859375 -19.515625 C 20.691406 -19.523438 20.582031 -19.441406 20.53125 -19.265625 C 20.375 -18.335938 20.191406 -17.269531 19.984375 -16.0625 C 19.773438 -14.851562 19.554688 -13.523438 19.328125 -12.078125 C 18.847656 -9.015625 18.46875 -6.507812 18.1875 -4.5625 C 17.914062 -2.625 17.742188 -1.300781 17.671875 -0.59375 C 17.597656 -0.195312 17.367188 0 16.984375 0 L 11.15625 0 C 10.738281 0 10.503906 -0.195312 10.453125 -0.59375 C 10.359375 -1.300781 10.179688 -2.625 9.921875 -4.5625 C 9.660156 -6.507812 9.273438 -9.015625 8.765625 -12.078125 C 8.535156 -13.523438 8.316406 -14.851562 8.109375 -16.0625 C 7.898438 -17.269531 7.71875 -18.335938 7.5625 -19.265625 C 7.539062 -19.441406 7.441406 -19.523438 7.265625 -19.515625 C 7.085938 -19.503906 7 -19.40625 7 -19.21875 C 6.976562 -18.28125 6.960938 -17.21875 6.953125 -16.03125 C 6.941406 -14.84375 6.9375 -13.523438 6.9375 -12.078125 C 6.9375 -9.085938 6.957031 -6.628906 7 -4.703125 C 7.050781 -2.785156 7.085938 -1.445312 7.109375 -0.6875 C 7.109375 -0.507812 7.046875 -0.347656 6.921875 -0.203125 C 6.796875 -0.0664062 6.628906 0 6.421875 0 L 2.421875 0 C 2.210938 0 2.039062 -0.0664062 1.90625 -0.203125 C 1.78125 -0.347656 1.71875 -0.507812 1.71875 -0.6875 C 1.75 -1.445312 1.785156 -2.785156 1.828125 -4.703125 C 1.867188 -6.628906 1.890625 -9.085938 1.890625 -12.078125 C 1.890625 -15.097656 1.867188 -17.5625 1.828125 -19.46875 C 1.785156 -21.375 1.75 -22.707031 1.71875 -23.46875 C 1.71875 -23.65625 1.78125 -23.816406 1.90625 -23.953125 C 2.039062 -24.085938 2.210938 -24.15625 2.421875 -24.15625 L 10.25 -24.15625 C 10.644531 -24.15625 10.863281 -23.960938 10.90625 -23.578125 C 11 -22.859375 11.175781 -21.53125 11.4375 -19.59375 C 11.707031 -17.664062 12.09375 -15.160156 12.59375 -12.078125 C 12.820312 -10.671875 13.035156 -9.378906 13.234375 -8.203125 C 13.429688 -7.035156 13.609375 -5.992188 13.765625 -5.078125 C 13.796875 -4.910156 13.890625 -4.828125 14.046875 -4.828125 C 14.210938 -4.828125 14.304688 -4.910156 14.328125 -5.078125 C 14.503906 -5.992188 14.691406 -7.035156 14.890625 -8.203125 C 15.085938 -9.378906 15.300781 -10.671875 15.53125 -12.078125 C 16.007812 -15.160156 16.382812 -17.664062 16.65625 -19.59375 C 16.9375 -21.53125 17.113281 -22.859375 17.1875 -23.578125 C 17.226562 -23.960938 17.457031 -24.15625 17.875 -24.15625 Z M 25.71875 -24.15625"/></g></g></g><g fill-opacity="1" fill="#000000"><g transform="translate(201.244982, 179.892557)"><g><path d="M 10.140625 -24.15625 C 12.265625 -24.15625 13.9375 -23.847656 15.15625 -23.234375 C 16.375 -22.628906 17.242188 -21.765625 17.765625 -20.640625 C 18.296875 -19.515625 18.5625 -18.171875 18.5625 -16.609375 C 18.5625 -15.015625 18.296875 -13.675781 17.765625 -12.59375 C 17.242188 -11.507812 16.375 -10.691406 15.15625 -10.140625 C 13.9375 -9.585938 12.265625 -9.3125 10.140625 -9.3125 L 7.625 -9.3125 C 7.445312 -9.3125 7.285156 -9.242188 7.140625 -9.109375 C 7.003906 -8.972656 6.945312 -8.8125 6.96875 -8.625 C 6.96875 -6.601562 6.984375 -4.925781 7.015625 -3.59375 C 7.054688 -2.257812 7.085938 -1.289062 7.109375 -0.6875 C 7.109375 -0.507812 7.046875 -0.347656 6.921875 -0.203125 C 6.796875 -0.0664062 6.628906 0 6.421875 0 L 2.421875 0 C 2.210938 0 2.039062 -0.0664062 1.90625 -0.203125 C 1.78125 -0.347656 1.71875 -0.507812 1.71875 -0.6875 C 1.75 -1.445312 1.785156 -2.785156 1.828125 -4.703125 C 1.867188 -6.628906 1.890625 -9.085938 1.890625 -12.078125 C 1.890625 -15.097656 1.867188 -17.5625 1.828125 -19.46875 C 1.785156 -21.375 1.75 -22.707031 1.71875 -23.46875 C 1.71875 -23.65625 1.78125 -23.816406 1.90625 -23.953125 C 2.039062 -24.085938 2.210938 -24.15625 2.421875 -24.15625 Z M 10.21875 -12.984375 C 11.15625 -12.984375 11.832031 -13.171875 12.25 -13.546875 C 12.664062 -13.921875 12.910156 -14.390625 12.984375 -14.953125 C 13.066406 -15.523438 13.109375 -16.078125 13.109375 -16.609375 C 13.109375 -17.109375 13.066406 -17.660156 12.984375 -18.265625 C 12.910156 -18.878906 12.664062 -19.40625 12.25 -19.84375 C 11.832031 -20.28125 11.15625 -20.5 10.21875 -20.5 L 7.703125 -20.5 C 7.515625 -20.5 7.347656 -20.4375 7.203125 -20.3125 C 7.066406 -20.1875 7 -20.03125 7 -19.84375 C 7 -19.019531 6.988281 -18.09375 6.96875 -17.0625 C 6.945312 -16.039062 6.9375 -14.910156 6.9375 -13.671875 C 6.9375 -13.460938 7.003906 -13.296875 7.140625 -13.171875 C 7.285156 -13.046875 7.445312 -12.984375 7.625 -12.984375 Z M 10.21875 -12.984375"/></g></g></g><g fill-opacity="1" fill="#000000"><g transform="translate(218.672547, 179.892557)"><g><path d="M 16.53125 0 C 16.144531 0 15.914062 -0.179688 15.84375 -0.546875 C 15.800781 -0.867188 15.71875 -1.328125 15.59375 -1.921875 C 15.476562 -2.523438 15.34375 -3.265625 15.1875 -4.140625 C 15.113281 -4.503906 14.894531 -4.6875 14.53125 -4.6875 L 8.28125 -4.6875 C 7.914062 -4.6875 7.6875 -4.503906 7.59375 -4.140625 C 7.4375 -3.265625 7.304688 -2.523438 7.203125 -1.921875 C 7.097656 -1.328125 7.007812 -0.867188 6.9375 -0.546875 C 6.894531 -0.179688 6.675781 0 6.28125 0 L 2.25 0 C 2.007812 0 1.820312 -0.0820312 1.6875 -0.25 C 1.550781 -0.425781 1.519531 -0.617188 1.59375 -0.828125 C 1.769531 -1.628906 2.078125 -2.976562 2.515625 -4.875 C 2.953125 -6.78125 3.484375 -9.179688 4.109375 -12.078125 C 4.773438 -15.179688 5.289062 -17.707031 5.65625 -19.65625 C 6.03125 -21.601562 6.273438 -22.921875 6.390625 -23.609375 C 6.453125 -23.972656 6.671875 -24.15625 7.046875 -24.15625 L 15.734375 -24.15625 C 16.128906 -24.15625 16.359375 -23.972656 16.421875 -23.609375 C 16.546875 -22.921875 16.789062 -21.601562 17.15625 -19.65625 C 17.519531 -17.707031 18.023438 -15.179688 18.671875 -12.078125 C 19.296875 -9.179688 19.828125 -6.78125 20.265625 -4.875 C 20.703125 -2.976562 21.023438 -1.628906 21.234375 -0.828125 C 21.273438 -0.617188 21.222656 -0.425781 21.078125 -0.25 C 20.941406 -0.0820312 20.773438 0 20.578125 0 Z M 9.28125 -8.359375 L 13.53125 -8.359375 C 13.738281 -8.359375 13.910156 -8.4375 14.046875 -8.59375 C 14.179688 -8.757812 14.226562 -8.941406 14.1875 -9.140625 C 14.09375 -9.609375 13.992188 -10.085938 13.890625 -10.578125 C 13.785156 -11.078125 13.675781 -11.578125 13.5625 -12.078125 C 13.21875 -13.710938 12.898438 -15.191406 12.609375 -16.515625 C 12.328125 -17.835938 12.070312 -18.984375 11.84375 -19.953125 C 11.789062 -20.179688 11.644531 -20.296875 11.40625 -20.296875 C 11.164062 -20.296875 11.007812 -20.179688 10.9375 -19.953125 C 10.726562 -18.984375 10.472656 -17.835938 10.171875 -16.515625 C 9.878906 -15.191406 9.5625 -13.710938 9.21875 -12.078125 C 9.101562 -11.578125 8.992188 -11.078125 8.890625 -10.578125 C 8.785156 -10.085938 8.6875 -9.609375 8.59375 -9.140625 C 8.550781 -8.941406 8.597656 -8.757812 8.734375 -8.59375 C 8.867188 -8.4375 9.050781 -8.359375 9.28125 -8.359375 Z M 9.28125 -8.359375"/></g></g></g><g fill-opacity="1" fill="#000000"><g transform="translate(241.484843, 179.892557)"><g><path d="M 17.734375 0 L 13.359375 0 C 13.171875 0 13.007812 -0.0664062 12.875 -0.203125 C 12.738281 -0.347656 12.671875 -0.507812 12.671875 -0.6875 L 12.671875 -6 C 12.671875 -6.53125 12.585938 -7.046875 12.421875 -7.546875 C 12.265625 -8.054688 11.972656 -8.476562 11.546875 -8.8125 C 11.117188 -9.144531 10.523438 -9.3125 9.765625 -9.3125 L 7.625 -9.3125 C 7.445312 -9.3125 7.285156 -9.242188 7.140625 -9.109375 C 7.003906 -8.972656 6.945312 -8.8125 6.96875 -8.625 C 6.96875 -6.601562 6.984375 -4.925781 7.015625 -3.59375 C 7.054688 -2.257812 7.085938 -1.289062 7.109375 -0.6875 C 7.109375 -0.507812 7.046875 -0.347656 6.921875 -0.203125 C 6.796875 -0.0664062 6.628906 0 6.421875 0 L 2.421875 0 C 2.210938 0 2.039062 -0.0664062 1.90625 -0.203125 C 1.78125 -0.347656 1.71875 -0.507812 1.71875 -0.6875 C 1.75 -1.445312 1.785156 -2.785156 1.828125 -4.703125 C 1.867188 -6.628906 1.890625 -9.085938 1.890625 -12.078125 C 1.890625 -15.097656 1.867188 -17.5625 1.828125 -19.46875 C 1.785156 -21.375 1.75 -22.707031 1.71875 -23.46875 C 1.71875 -23.65625 1.78125 -23.816406 1.90625 -23.953125 C 2.039062 -24.085938 2.210938 -24.15625 2.421875 -24.15625 L 9.90625 -24.15625 C 11.03125 -24.15625 12.097656 -24.050781 13.109375 -23.84375 C 14.128906 -23.644531 15.03125 -23.28125 15.8125 -22.75 C 16.59375 -22.21875 17.207031 -21.476562 17.65625 -20.53125 C 18.101562 -19.59375 18.328125 -18.382812 18.328125 -16.90625 C 18.328125 -15.550781 18.019531 -14.429688 17.40625 -13.546875 C 16.800781 -12.660156 16.015625 -11.960938 15.046875 -11.453125 C 14.953125 -11.410156 14.90625 -11.332031 14.90625 -11.21875 C 14.90625 -11.101562 14.960938 -11.007812 15.078125 -10.9375 C 15.953125 -10.519531 16.675781 -9.914062 17.25 -9.125 C 17.832031 -8.332031 18.125 -7.289062 18.125 -6 C 18.125 -4.757812 18.15625 -3.695312 18.21875 -2.8125 C 18.289062 -1.925781 18.363281 -1.242188 18.4375 -0.765625 C 18.457031 -0.554688 18.394531 -0.375 18.25 -0.21875 C 18.113281 -0.0703125 17.941406 0 17.734375 0 Z M 9.96875 -20.5 L 7.703125 -20.5 C 7.515625 -20.5 7.347656 -20.4375 7.203125 -20.3125 C 7.066406 -20.1875 7 -20.03125 7 -19.84375 C 7 -19.019531 6.988281 -18.09375 6.96875 -17.0625 C 6.945312 -16.039062 6.9375 -14.910156 6.9375 -13.671875 C 6.9375 -13.460938 7.003906 -13.296875 7.140625 -13.171875 C 7.285156 -13.046875 7.445312 -12.984375 7.625 -12.984375 L 9.96875 -12.984375 C 10.726562 -12.984375 11.320312 -13.203125 11.75 -13.640625 C 12.175781 -14.078125 12.46875 -14.597656 12.625 -15.203125 C 12.789062 -15.816406 12.875 -16.382812 12.875 -16.90625 C 12.875 -17.832031 12.707031 -18.550781 12.375 -19.0625 C 12.039062 -19.582031 11.648438 -19.953125 11.203125 -20.171875 C 10.753906 -20.390625 10.34375 -20.5 9.96875 -20.5 Z M 9.96875 -20.5"/></g></g></g><g fill-opacity="1" fill="#000000"><g transform="translate(261.19095, 179.892557)"><g><path d="M 17.390625 -21.1875 C 17.390625 -21.007812 17.328125 -20.847656 17.203125 -20.703125 C 17.078125 -20.566406 16.910156 -20.5 16.703125 -20.5 L 7.703125 -20.5 C 7.515625 -20.5 7.347656 -20.4375 7.203125 -20.3125 C 7.066406 -20.1875 7 -20.03125 7 -19.84375 C 7 -19.132812 6.992188 -18.34375 6.984375 -17.46875 C 6.972656 -16.59375 6.957031 -15.632812 6.9375 -14.59375 C 6.9375 -14.414062 7.003906 -14.253906 7.140625 -14.109375 C 7.285156 -13.972656 7.445312 -13.90625 7.625 -13.90625 L 14.90625 -13.90625 C 15.09375 -13.90625 15.253906 -13.835938 15.390625 -13.703125 C 15.523438 -13.566406 15.59375 -13.40625 15.59375 -13.21875 L 15.59375 -10.9375 C 15.59375 -10.757812 15.523438 -10.597656 15.390625 -10.453125 C 15.253906 -10.316406 15.09375 -10.25 14.90625 -10.25 L 7.625 -10.25 C 7.445312 -10.25 7.285156 -10.179688 7.140625 -10.046875 C 7.003906 -9.910156 6.9375 -9.75 6.9375 -9.5625 C 6.957031 -8.519531 6.972656 -7.5625 6.984375 -6.6875 C 6.992188 -5.820312 7 -5.03125 7 -4.3125 C 7 -4.125 7.066406 -3.96875 7.203125 -3.84375 C 7.347656 -3.71875 7.515625 -3.65625 7.703125 -3.65625 L 16.703125 -3.65625 C 16.910156 -3.65625 17.078125 -3.585938 17.203125 -3.453125 C 17.328125 -3.316406 17.390625 -3.15625 17.390625 -2.96875 L 17.390625 -0.6875 C 17.390625 -0.507812 17.328125 -0.347656 17.203125 -0.203125 C 17.078125 -0.0664062 16.910156 0 16.703125 0 L 2.421875 0 C 2.210938 0 2.039062 -0.0664062 1.90625 -0.203125 C 1.78125 -0.347656 1.71875 -0.507812 1.71875 -0.6875 C 1.75 -1.445312 1.785156 -2.785156 1.828125 -4.703125 C 1.867188 -6.628906 1.890625 -9.085938 1.890625 -12.078125 C 1.890625 -15.097656 1.867188 -17.5625 1.828125 -19.46875 C 1.785156 -21.375 1.75 -22.707031 1.71875 -23.46875 C 1.71875 -23.65625 1.78125 -23.816406 1.90625 -23.953125 C 2.039062 -24.085938 2.210938 -24.15625 2.421875 -24.15625 L 16.703125 -24.15625 C 16.910156 -24.15625 17.078125 -24.085938 17.203125 -23.953125 C 17.328125 -23.816406 17.390625 -23.65625 17.390625 -23.46875 Z M 17.390625 -21.1875"/></g></g></g><g fill-opacity="1" fill="#000000"><g transform="translate(133.74026, 212.892555)"><g><path d="M 24.953125 -24.15625 L 28.953125 -24.15625 C 29.179688 -24.15625 29.359375 -24.066406 29.484375 -23.890625 C 29.617188 -23.722656 29.660156 -23.535156 29.609375 -23.328125 C 29.453125 -22.546875 29.1875 -21.207031 28.8125 -19.3125 C 28.445312 -17.414062 28 -15.003906 27.46875 -12.078125 C 26.945312 -8.992188 26.535156 -6.476562 26.234375 -4.53125 C 25.929688 -2.59375 25.722656 -1.28125 25.609375 -0.59375 C 25.566406 -0.195312 25.347656 0 24.953125 0 L 19.125 0 C 18.726562 0 18.507812 -0.195312 18.46875 -0.59375 C 18.375 -1.300781 18.191406 -2.617188 17.921875 -4.546875 C 17.660156 -6.484375 17.28125 -8.992188 16.78125 -12.078125 C 16.613281 -13.085938 16.453125 -14.039062 16.296875 -14.9375 C 16.148438 -15.84375 16.007812 -16.6875 15.875 -17.46875 C 15.851562 -17.625 15.757812 -17.703125 15.59375 -17.703125 C 15.4375 -17.703125 15.347656 -17.625 15.328125 -17.46875 C 15.191406 -16.6875 15.046875 -15.84375 14.890625 -14.9375 C 14.742188 -14.039062 14.585938 -13.085938 14.421875 -12.078125 C 13.921875 -8.992188 13.535156 -6.484375 13.265625 -4.546875 C 13.003906 -2.617188 12.828125 -1.300781 12.734375 -0.59375 C 12.691406 -0.195312 12.472656 0 12.078125 0 L 6.25 0 C 5.851562 0 5.625 -0.195312 5.5625 -0.59375 C 5.46875 -1.28125 5.269531 -2.59375 4.96875 -4.53125 C 4.664062 -6.476562 4.253906 -8.992188 3.734375 -12.078125 C 3.203125 -15.003906 2.75 -17.414062 2.375 -19.3125 C 2.007812 -21.207031 1.734375 -22.546875 1.546875 -23.328125 C 1.503906 -23.535156 1.550781 -23.722656 1.6875 -23.890625 C 1.820312 -24.066406 2.007812 -24.15625 2.25 -24.15625 L 6.25 -24.15625 C 6.632812 -24.15625 6.851562 -23.960938 6.90625 -23.578125 C 7.019531 -22.859375 7.21875 -21.523438 7.5 -19.578125 C 7.789062 -17.640625 8.210938 -15.140625 8.765625 -12.078125 C 8.878906 -11.390625 8.992188 -10.738281 9.109375 -10.125 C 9.222656 -9.519531 9.328125 -8.941406 9.421875 -8.390625 C 9.460938 -8.222656 9.554688 -8.140625 9.703125 -8.140625 C 9.859375 -8.140625 9.960938 -8.222656 10.015625 -8.390625 C 10.097656 -8.941406 10.191406 -9.523438 10.296875 -10.140625 C 10.398438 -10.765625 10.5 -11.410156 10.59375 -12.078125 C 11.101562 -15.140625 11.488281 -17.640625 11.75 -19.578125 C 12.019531 -21.523438 12.195312 -22.859375 12.28125 -23.578125 C 12.332031 -23.960938 12.566406 -24.15625 12.984375 -24.15625 L 18.21875 -24.15625 C 18.632812 -24.15625 18.867188 -23.960938 18.921875 -23.578125 C 19.003906 -22.859375 19.175781 -21.523438 19.4375 -19.578125 C 19.707031 -17.640625 20.097656 -15.140625 20.609375 -12.078125 C 20.703125 -11.410156 20.796875 -10.765625 20.890625 -10.140625 C 20.992188 -9.523438 21.09375 -8.941406 21.1875 -8.390625 C 21.21875 -8.222656 21.3125 -8.140625 21.46875 -8.140625 C 21.625 -8.140625 21.726562 -8.222656 21.78125 -8.390625 C 21.875 -8.941406 21.976562 -9.519531 22.09375 -10.125 C 22.207031 -10.738281 22.320312 -11.390625 22.4375 -12.078125 C 22.96875 -15.160156 23.378906 -17.664062 23.671875 -19.59375 C 23.972656 -21.53125 24.179688 -22.859375 24.296875 -23.578125 C 24.347656 -23.960938 24.566406 -24.15625 24.953125 -24.15625 Z M 24.953125 -24.15625"/></g></g></g><g fill-opacity="1" fill="#000000"><g transform="translate(162.280702, 212.892555)"><g><path d="M 16.53125 0 C 16.144531 0 15.914062 -0.179688 15.84375 -0.546875 C 15.800781 -0.867188 15.71875 -1.328125 15.59375 -1.921875 C 15.476562 -2.523438 15.34375 -3.265625 15.1875 -4.140625 C 15.113281 -4.503906 14.894531 -4.6875 14.53125 -4.6875 L 8.28125 -4.6875 C 7.914062 -4.6875 7.6875 -4.503906 7.59375 -4.140625 C 7.4375 -3.265625 7.304688 -2.523438 7.203125 -1.921875 C 7.097656 -1.328125 7.007812 -0.867188 6.9375 -0.546875 C 6.894531 -0.179688 6.675781 0 6.28125 0 L 2.25 0 C 2.007812 0 1.820312 -0.0820312 1.6875 -0.25 C 1.550781 -0.425781 1.519531 -0.617188 1.59375 -0.828125 C 1.769531 -1.628906 2.078125 -2.976562 2.515625 -4.875 C 2.953125 -6.78125 3.484375 -9.179688 4.109375 -12.078125 C 4.773438 -15.179688 5.289062 -17.707031 5.65625 -19.65625 C 6.03125 -21.601562 6.273438 -22.921875 6.390625 -23.609375 C 6.453125 -23.972656 6.671875 -24.15625 7.046875 -24.15625 L 15.734375 -24.15625 C 16.128906 -24.15625 16.359375 -23.972656 16.421875 -23.609375 C 16.546875 -22.921875 16.789062 -21.601562 17.15625 -19.65625 C 17.519531 -17.707031 18.023438 -15.179688 18.671875 -12.078125 C 19.296875 -9.179688 19.828125 -6.78125 20.265625 -4.875 C 20.703125 -2.976562 21.023438 -1.628906 21.234375 -0.828125 C 21.273438 -0.617188 21.222656 -0.425781 21.078125 -0.25 C 20.941406 -0.0820312 20.773438 0 20.578125 0 Z M 9.28125 -8.359375 L 13.53125 -8.359375 C 13.738281 -8.359375 13.910156 -8.4375 14.046875 -8.59375 C 14.179688 -8.757812 14.226562 -8.941406 14.1875 -9.140625 C 14.09375 -9.609375 13.992188 -10.085938 13.890625 -10.578125 C 13.785156 -11.078125 13.675781 -11.578125 13.5625 -12.078125 C 13.21875 -13.710938 12.898438 -15.191406 12.609375 -16.515625 C 12.328125 -17.835938 12.070312 -18.984375 11.84375 -19.953125 C 11.789062 -20.179688 11.644531 -20.296875 11.40625 -20.296875 C 11.164062 -20.296875 11.007812 -20.179688 10.9375 -19.953125 C 10.726562 -18.984375 10.472656 -17.835938 10.171875 -16.515625 C 9.878906 -15.191406 9.5625 -13.710938 9.21875 -12.078125 C 9.101562 -11.578125 8.992188 -11.078125 8.890625 -10.578125 C 8.785156 -10.085938 8.6875 -9.609375 8.59375 -9.140625 C 8.550781 -8.941406 8.597656 -8.757812 8.734375 -8.59375 C 8.867188 -8.4375 9.050781 -8.359375 9.28125 -8.359375 Z M 9.28125 -8.359375"/></g></g></g><g fill-opacity="1" fill="#000000"><g transform="translate(185.092998, 212.892555)"><g><path d="M 17.734375 0 L 13.359375 0 C 13.171875 0 13.007812 -0.0664062 12.875 -0.203125 C 12.738281 -0.347656 12.671875 -0.507812 12.671875 -0.6875 L 12.671875 -6 C 12.671875 -6.53125 12.585938 -7.046875 12.421875 -7.546875 C 12.265625 -8.054688 11.972656 -8.476562 11.546875 -8.8125 C 11.117188 -9.144531 10.523438 -9.3125 9.765625 -9.3125 L 7.625 -9.3125 C 7.445312 -9.3125 7.285156 -9.242188 7.140625 -9.109375 C 7.003906 -8.972656 6.945312 -8.8125 6.96875 -8.625 C 6.96875 -6.601562 6.984375 -4.925781 7.015625 -3.59375 C 7.054688 -2.257812 7.085938 -1.289062 7.109375 -0.6875 C 7.109375 -0.507812 7.046875 -0.347656 6.921875 -0.203125 C 6.796875 -0.0664062 6.628906 0 6.421875 0 L 2.421875 0 C 2.210938 0 2.039062 -0.0664062 1.90625 -0.203125 C 1.78125 -0.347656 1.71875 -0.507812 1.71875 -0.6875 C 1.75 -1.445312 1.785156 -2.785156 1.828125 -4.703125 C 1.867188 -6.628906 1.890625 -9.085938 1.890625 -12.078125 C 1.890625 -15.097656 1.867188 -17.5625 1.828125 -19.46875 C 1.785156 -21.375 1.75 -22.707031 1.71875 -23.46875 C 1.71875 -23.65625 1.78125 -23.816406 1.90625 -23.953125 C 2.039062 -24.085938 2.210938 -24.15625 2.421875 -24.15625 L 9.90625 -24.15625 C 11.03125 -24.15625 12.097656 -24.050781 13.109375 -23.84375 C 14.128906 -23.644531 15.03125 -23.28125 15.8125 -22.75 C 16.59375 -22.21875 17.207031 -21.476562 17.65625 -20.53125 C 18.101562 -19.59375 18.328125 -18.382812 18.328125 -16.90625 C 18.328125 -15.550781 18.019531 -14.429688 17.40625 -13.546875 C 16.800781 -12.660156 16.015625 -11.960938 15.046875 -11.453125 C 14.953125 -11.410156 14.90625 -11.332031 14.90625 -11.21875 C 14.90625 -11.101562 14.960938 -11.007812 15.078125 -10.9375 C 15.953125 -10.519531 16.675781 -9.914062 17.25 -9.125 C 17.832031 -8.332031 18.125 -7.289062 18.125 -6 C 18.125 -4.757812 18.15625 -3.695312 18.21875 -2.8125 C 18.289062 -1.925781 18.363281 -1.242188 18.4375 -0.765625 C 18.457031 -0.554688 18.394531 -0.375 18.25 -0.21875 C 18.113281 -0.0703125 17.941406 0 17.734375 0 Z M 9.96875 -20.5 L 7.703125 -20.5 C 7.515625 -20.5 7.347656 -20.4375 7.203125 -20.3125 C 7.066406 -20.1875 7 -20.03125 7 -19.84375 C 7 -19.019531 6.988281 -18.09375 6.96875 -17.0625 C 6.945312 -16.039062 6.9375 -14.910156 6.9375 -13.671875 C 6.9375 -13.460938 7.003906 -13.296875 7.140625 -13.171875 C 7.285156 -13.046875 7.445312 -12.984375 7.625 -12.984375 L 9.96875 -12.984375 C 10.726562 -12.984375 11.320312 -13.203125 11.75 -13.640625 C 12.175781 -14.078125 12.46875 -14.597656 12.625 -15.203125 C 12.789062 -15.816406 12.875 -16.382812 12.875 -16.90625 C 12.875 -17.832031 12.707031 -18.550781 12.375 -19.0625 C 12.039062 -19.582031 11.648438 -19.953125 11.203125 -20.171875 C 10.753906 -20.390625 10.34375 -20.5 9.96875 -20.5 Z M 9.96875 -20.5"/></g></g></g><g fill-opacity="1" fill="#000000"><g transform="translate(205.247896, 212.892555)"><g><path d="M 17.734375 0 L 13.359375 0 C 13.171875 0 13.007812 -0.0664062 12.875 -0.203125 C 12.738281 -0.347656 12.671875 -0.507812 12.671875 -0.6875 L 12.671875 -6 C 12.671875 -6.53125 12.585938 -7.046875 12.421875 -7.546875 C 12.265625 -8.054688 11.972656 -8.476562 11.546875 -8.8125 C 11.117188 -9.144531 10.523438 -9.3125 9.765625 -9.3125 L 7.625 -9.3125 C 7.445312 -9.3125 7.285156 -9.242188 7.140625 -9.109375 C 7.003906 -8.972656 6.945312 -8.8125 6.96875 -8.625 C 6.96875 -6.601562 6.984375 -4.925781 7.015625 -3.59375 C 7.054688 -2.257812 7.085938 -1.289062 7.109375 -0.6875 C 7.109375 -0.507812 7.046875 -0.347656 6.921875 -0.203125 C 6.796875 -0.0664062 6.628906 0 6.421875 0 L 2.421875 0 C 2.210938 0 2.039062 -0.0664062 1.90625 -0.203125 C 1.78125 -0.347656 1.71875 -0.507812 1.71875 -0.6875 C 1.75 -1.445312 1.785156 -2.785156 1.828125 -4.703125 C 1.867188 -6.628906 1.890625 -9.085938 1.890625 -12.078125 C 1.890625 -15.097656 1.867188 -17.5625 1.828125 -19.46875 C 1.785156 -21.375 1.75 -22.707031 1.71875 -23.46875 C 1.71875 -23.65625 1.78125 -23.816406 1.90625 -23.953125 C 2.039062 -24.085938 2.210938 -24.15625 2.421875 -24.15625 L 9.90625 -24.15625 C 11.03125 -24.15625 12.097656 -24.050781 13.109375 -23.84375 C 14.128906 -23.644531 15.03125 -23.28125 15.8125 -22.75 C 16.59375 -22.21875 17.207031 -21.476562 17.65625 -20.53125 C 18.101562 -19.59375 18.328125 -18.382812 18.328125 -16.90625 C 18.328125 -15.550781 18.019531 -14.429688 17.40625 -13.546875 C 16.800781 -12.660156 16.015625 -11.960938 15.046875 -11.453125 C 14.953125 -11.410156 14.90625 -11.332031 14.90625 -11.21875 C 14.90625 -11.101562 14.960938 -11.007812 15.078125 -10.9375 C 15.953125 -10.519531 16.675781 -9.914062 17.25 -9.125 C 17.832031 -8.332031 18.125 -7.289062 18.125 -6 C 18.125 -4.757812 18.15625 -3.695312 18.21875 -2.8125 C 18.289062 -1.925781 18.363281 -1.242188 18.4375 -0.765625 C 18.457031 -0.554688 18.394531 -0.375 18.25 -0.21875 C 18.113281 -0.0703125 17.941406 0 17.734375 0 Z M 9.96875 -20.5 L 7.703125 -20.5 C 7.515625 -20.5 7.347656 -20.4375 7.203125 -20.3125 C 7.066406 -20.1875 7 -20.03125 7 -19.84375 C 7 -19.019531 6.988281 -18.09375 6.96875 -17.0625 C 6.945312 -16.039062 6.9375 -14.910156 6.9375 -13.671875 C 6.9375 -13.460938 7.003906 -13.296875 7.140625 -13.171875 C 7.285156 -13.046875 7.445312 -12.984375 7.625 -12.984375 L 9.96875 -12.984375 C 10.726562 -12.984375 11.320312 -13.203125 11.75 -13.640625 C 12.175781 -14.078125 12.46875 -14.597656 12.625 -15.203125 C 12.789062 -15.816406 12.875 -16.382812 12.875 -16.90625 C 12.875 -17.832031 12.707031 -18.550781 12.375 -19.0625 C 12.039062 -19.582031 11.648438 -19.953125 11.203125 -20.171875 C 10.753906 -20.390625 10.34375 -20.5 9.96875 -20.5 Z M 9.96875 -20.5"/></g></g></g><g fill-opacity="1" fill="#000000"><g transform="translate(224.194504, 212.892555)"><g><path d="M 16.53125 0 C 16.144531 0 15.914062 -0.179688 15.84375 -0.546875 C 15.800781 -0.867188 15.71875 -1.328125 15.59375 -1.921875 C 15.476562 -2.523438 15.34375 -3.265625 15.1875 -4.140625 C 15.113281 -4.503906 14.894531 -4.6875 14.53125 -4.6875 L 8.28125 -4.6875 C 7.914062 -4.6875 7.6875 -4.503906 7.59375 -4.140625 C 7.4375 -3.265625 7.304688 -2.523438 7.203125 -1.921875 C 7.097656 -1.328125 7.007812 -0.867188 6.9375 -0.546875 C 6.894531 -0.179688 6.675781 0 6.28125 0 L 2.25 0 C 2.007812 0 1.820312 -0.0820312 1.6875 -0.25 C 1.550781 -0.425781 1.519531 -0.617188 1.59375 -0.828125 C 1.769531 -1.628906 2.078125 -2.976562 2.515625 -4.875 C 2.953125 -6.78125 3.484375 -9.179688 4.109375 -12.078125 C 4.773438 -15.179688 5.289062 -17.707031 5.65625 -19.65625 C 6.03125 -21.601562 6.273438 -22.921875 6.390625 -23.609375 C 6.453125 -23.972656 6.671875 -24.15625 7.046875 -24.15625 L 15.734375 -24.15625 C 16.128906 -24.15625 16.359375 -23.972656 16.421875 -23.609375 C 16.546875 -22.921875 16.789062 -21.601562 17.15625 -19.65625 C 17.519531 -17.707031 18.023438 -15.179688 18.671875 -12.078125 C 19.296875 -9.179688 19.828125 -6.78125 20.265625 -4.875 C 20.703125 -2.976562 21.023438 -1.628906 21.234375 -0.828125 C 21.273438 -0.617188 21.222656 -0.425781 21.078125 -0.25 C 20.941406 -0.0820312 20.773438 0 20.578125 0 Z M 9.28125 -8.359375 L 13.53125 -8.359375 C 13.738281 -8.359375 13.910156 -8.4375 14.046875 -8.59375 C 14.179688 -8.757812 14.226562 -8.941406 14.1875 -9.140625 C 14.09375 -9.609375 13.992188 -10.085938 13.890625 -10.578125 C 13.785156 -11.078125 13.675781 -11.578125 13.5625 -12.078125 C 13.21875 -13.710938 12.898438 -15.191406 12.609375 -16.515625 C 12.328125 -17.835938 12.070312 -18.984375 11.84375 -19.953125 C 11.789062 -20.179688 11.644531 -20.296875 11.40625 -20.296875 C 11.164062 -20.296875 11.007812 -20.179688 10.9375 -19.953125 C 10.726562 -18.984375 10.472656 -17.835938 10.171875 -16.515625 C 9.878906 -15.191406 9.5625 -13.710938 9.21875 -12.078125 C 9.101562 -11.578125 8.992188 -11.078125 8.890625 -10.578125 C 8.785156 -10.085938 8.6875 -9.609375 8.59375 -9.140625 C 8.550781 -8.941406 8.597656 -8.757812 8.734375 -8.59375 C 8.867188 -8.4375 9.050781 -8.359375 9.28125 -8.359375 Z M 9.28125 -8.359375"/></g></g></g><g fill-opacity="1" fill="#000000"><g transform="translate(247.0068, 212.892555)"><g><path d="M 18.734375 -12.078125 C 18.734375 -9.085938 18.75 -6.628906 18.78125 -4.703125 C 18.820312 -2.785156 18.867188 -1.445312 18.921875 -0.6875 C 18.921875 -0.507812 18.847656 -0.347656 18.703125 -0.203125 C 18.566406 -0.0664062 18.40625 0 18.21875 0 L 10.96875 0 C 10.5625 0 10.332031 -0.195312 10.28125 -0.59375 C 10.1875 -1.300781 9.984375 -2.617188 9.671875 -4.546875 C 9.367188 -6.484375 8.953125 -8.992188 8.421875 -12.078125 C 8.265625 -12.972656 8.109375 -13.816406 7.953125 -14.609375 C 7.804688 -15.410156 7.664062 -16.15625 7.53125 -16.84375 C 7.5 -17.03125 7.394531 -17.109375 7.21875 -17.078125 C 7.050781 -17.054688 6.96875 -16.96875 6.96875 -16.8125 C 6.96875 -16.125 6.960938 -15.382812 6.953125 -14.59375 C 6.941406 -13.8125 6.9375 -12.972656 6.9375 -12.078125 C 6.9375 -9.085938 6.957031 -6.628906 7 -4.703125 C 7.050781 -2.785156 7.085938 -1.445312 7.109375 -0.6875 C 7.109375 -0.507812 7.046875 -0.347656 6.921875 -0.203125 C 6.796875 -0.0664062 6.628906 0 6.421875 0 L 2.421875 0 C 2.210938 0 2.039062 -0.0664062 1.90625 -0.203125 C 1.78125 -0.347656 1.71875 -0.507812 1.71875 -0.6875 C 1.75 -1.445312 1.785156 -2.785156 1.828125 -4.703125 C 1.867188 -6.628906 1.890625 -9.085938 1.890625 -12.078125 C 1.890625 -15.097656 1.867188 -17.5625 1.828125 -19.46875 C 1.785156 -21.375 1.75 -22.707031 1.71875 -23.46875 C 1.71875 -23.65625 1.78125 -23.816406 1.90625 -23.953125 C 2.039062 -24.085938 2.210938 -24.15625 2.421875 -24.15625 L 9.671875 -24.15625 C 10.054688 -24.15625 10.285156 -23.960938 10.359375 -23.578125 C 10.453125 -22.878906 10.644531 -21.554688 10.9375 -19.609375 C 11.238281 -17.671875 11.664062 -15.160156 12.21875 -12.078125 C 12.375 -11.203125 12.523438 -10.363281 12.671875 -9.5625 C 12.828125 -8.757812 12.960938 -8.007812 13.078125 -7.3125 C 13.128906 -7.132812 13.238281 -7.054688 13.40625 -7.078125 C 13.582031 -7.097656 13.671875 -7.191406 13.671875 -7.359375 C 13.671875 -8.046875 13.675781 -8.785156 13.6875 -9.578125 C 13.695312 -10.367188 13.703125 -11.203125 13.703125 -12.078125 C 13.703125 -15.097656 13.675781 -17.5625 13.625 -19.46875 C 13.582031 -21.375 13.550781 -22.707031 13.53125 -23.46875 C 13.507812 -23.65625 13.566406 -23.816406 13.703125 -23.953125 C 13.835938 -24.085938 14 -24.15625 14.1875 -24.15625 L 18.21875 -24.15625 C 18.40625 -24.15625 18.566406 -24.085938 18.703125 -23.953125 C 18.847656 -23.816406 18.921875 -23.65625 18.921875 -23.46875 C 18.867188 -22.707031 18.820312 -21.375 18.78125 -19.46875 C 18.75 -17.5625 18.734375 -15.097656 18.734375 -12.078125 Z M 18.734375 -12.078125"/></g></g></g><g fill-opacity="1" fill="#000000"><g transform="translate(267.644856, 212.892555)"><g><path d="M 18.609375 -21.1875 C 18.609375 -21.007812 18.535156 -20.847656 18.390625 -20.703125 C 18.253906 -20.566406 18.09375 -20.5 17.90625 -20.5 L 13.421875 -20.5 C 13.242188 -20.5 13.085938 -20.4375 12.953125 -20.3125 C 12.828125 -20.1875 12.765625 -20.03125 12.765625 -19.84375 C 12.742188 -18.851562 12.726562 -17.710938 12.71875 -16.421875 C 12.707031 -15.140625 12.703125 -13.691406 12.703125 -12.078125 C 12.703125 -9.085938 12.71875 -6.628906 12.75 -4.703125 C 12.789062 -2.785156 12.820312 -1.445312 12.84375 -0.6875 C 12.863281 -0.507812 12.800781 -0.347656 12.65625 -0.203125 C 12.519531 -0.0664062 12.363281 0 12.1875 0 L 8.140625 0 C 7.960938 0 7.800781 -0.0664062 7.65625 -0.203125 C 7.519531 -0.347656 7.453125 -0.507812 7.453125 -0.6875 C 7.503906 -1.445312 7.546875 -2.785156 7.578125 -4.703125 C 7.609375 -6.628906 7.625 -9.085938 7.625 -12.078125 C 7.625 -13.691406 7.617188 -15.140625 7.609375 -16.421875 C 7.597656 -17.710938 7.582031 -18.851562 7.5625 -19.84375 C 7.5625 -20.03125 7.492188 -20.1875 7.359375 -20.3125 C 7.234375 -20.4375 7.070312 -20.5 6.875 -20.5 L 2.421875 -20.5 C 2.234375 -20.5 2.066406 -20.566406 1.921875 -20.703125 C 1.785156 -20.847656 1.71875 -21.007812 1.71875 -21.1875 L 1.71875 -23.46875 C 1.71875 -23.65625 1.785156 -23.816406 1.921875 -23.953125 C 2.066406 -24.085938 2.234375 -24.15625 2.421875 -24.15625 L 17.90625 -24.15625 C 18.09375 -24.15625 18.253906 -24.085938 18.390625 -23.953125 C 18.535156 -23.816406 18.609375 -23.65625 18.609375 -23.46875 Z M 18.609375 -21.1875"/></g></g></g><g fill-opacity="1" fill="#000000"><g transform="translate(287.972308, 212.892555)"><g><path d="M 7.109375 -0.6875 C 7.109375 -0.507812 7.046875 -0.347656 6.921875 -0.203125 C 6.796875 -0.0664062 6.628906 0 6.421875 0 L 2.421875 0 C 2.210938 0 2.039062 -0.0664062 1.90625 -0.203125 C 1.78125 -0.347656 1.71875 -0.507812 1.71875 -0.6875 C 1.75 -1.445312 1.785156 -2.785156 1.828125 -4.703125 C 1.867188 -6.628906 1.890625 -9.085938 1.890625 -12.078125 C 1.890625 -15.097656 1.867188 -17.5625 1.828125 -19.46875 C 1.785156 -21.375 1.75 -22.707031 1.71875 -23.46875 C 1.71875 -23.65625 1.78125 -23.816406 1.90625 -23.953125 C 2.039062 -24.085938 2.210938 -24.15625 2.421875 -24.15625 L 6.421875 -24.15625 C 6.628906 -24.15625 6.796875 -24.085938 6.921875 -23.953125 C 7.046875 -23.816406 7.109375 -23.65625 7.109375 -23.46875 C 7.085938 -22.707031 7.050781 -21.375 7 -19.46875 C 6.957031 -17.5625 6.9375 -15.097656 6.9375 -12.078125 C 6.9375 -9.085938 6.957031 -6.628906 7 -4.703125 C 7.050781 -2.785156 7.085938 -1.445312 7.109375 -0.6875 Z M 7.109375 -0.6875"/></g></g></g><g fill-opacity="1" fill="#000000"><g transform="translate(296.80733, 212.892555)"><g><path d="M 17.390625 -21.1875 C 17.390625 -21.007812 17.328125 -20.847656 17.203125 -20.703125 C 17.078125 -20.566406 16.910156 -20.5 16.703125 -20.5 L 7.703125 -20.5 C 7.515625 -20.5 7.347656 -20.4375 7.203125 -20.3125 C 7.066406 -20.1875 7 -20.03125 7 -19.84375 C 7 -19.132812 6.992188 -18.34375 6.984375 -17.46875 C 6.972656 -16.59375 6.957031 -15.632812 6.9375 -14.59375 C 6.9375 -14.414062 7.003906 -14.253906 7.140625 -14.109375 C 7.285156 -13.972656 7.445312 -13.90625 7.625 -13.90625 L 14.90625 -13.90625 C 15.09375 -13.90625 15.253906 -13.835938 15.390625 -13.703125 C 15.523438 -13.566406 15.59375 -13.40625 15.59375 -13.21875 L 15.59375 -10.9375 C 15.59375 -10.757812 15.523438 -10.597656 15.390625 -10.453125 C 15.253906 -10.316406 15.09375 -10.25 14.90625 -10.25 L 7.625 -10.25 C 7.445312 -10.25 7.285156 -10.179688 7.140625 -10.046875 C 7.003906 -9.910156 6.9375 -9.75 6.9375 -9.5625 C 6.957031 -8.519531 6.972656 -7.5625 6.984375 -6.6875 C 6.992188 -5.820312 7 -5.03125 7 -4.3125 C 7 -4.125 7.066406 -3.96875 7.203125 -3.84375 C 7.347656 -3.71875 7.515625 -3.65625 7.703125 -3.65625 L 16.703125 -3.65625 C 16.910156 -3.65625 17.078125 -3.585938 17.203125 -3.453125 C 17.328125 -3.316406 17.390625 -3.15625 17.390625 -2.96875 L 17.390625 -0.6875 C 17.390625 -0.507812 17.328125 -0.347656 17.203125 -0.203125 C 17.078125 -0.0664062 16.910156 0 16.703125 0 L 2.421875 0 C 2.210938 0 2.039062 -0.0664062 1.90625 -0.203125 C 1.78125 -0.347656 1.71875 -0.507812 1.71875 -0.6875 C 1.75 -1.445312 1.785156 -2.785156 1.828125 -4.703125 C 1.867188 -6.628906 1.890625 -9.085938 1.890625 -12.078125 C 1.890625 -15.097656 1.867188 -17.5625 1.828125 -19.46875 C 1.785156 -21.375 1.75 -22.707031 1.71875 -23.46875 C 1.71875 -23.65625 1.78125 -23.816406 1.90625 -23.953125 C 2.039062 -24.085938 2.210938 -24.15625 2.421875 -24.15625 L 16.703125 -24.15625 C 16.910156 -24.15625 17.078125 -24.085938 17.203125 -23.953125 C 17.328125 -23.816406 17.390625 -23.65625 17.390625 -23.46875 Z M 17.390625 -21.1875"/></g></g></g><g fill-opacity="1" fill="#000000"><g transform="translate(314.4424, 212.892555)"><g><path d="M 7.171875 -17.5 C 7.171875 -16.78125 7.445312 -16.207031 8 -15.78125 C 8.5625 -15.363281 9.285156 -15 10.171875 -14.6875 C 11.054688 -14.375 11.992188 -14.046875 12.984375 -13.703125 C 13.972656 -13.359375 14.910156 -12.914062 15.796875 -12.375 C 16.679688 -11.832031 17.398438 -11.109375 17.953125 -10.203125 C 18.503906 -9.296875 18.78125 -8.113281 18.78125 -6.65625 C 18.78125 -5.1875 18.515625 -3.925781 17.984375 -2.875 C 17.453125 -1.832031 16.570312 -1.035156 15.34375 -0.484375 C 14.113281 0.0664062 12.460938 0.34375 10.390625 0.34375 C 8.410156 0.34375 6.796875 0.0195312 5.546875 -0.625 C 4.304688 -1.269531 3.378906 -2.113281 2.765625 -3.15625 C 2.160156 -4.207031 1.8125 -5.316406 1.71875 -6.484375 C 1.695312 -6.671875 1.753906 -6.835938 1.890625 -6.984375 C 2.035156 -7.140625 2.210938 -7.21875 2.421875 -7.21875 L 6.484375 -7.21875 C 6.898438 -7.21875 7.117188 -7.007812 7.140625 -6.59375 C 7.191406 -6.175781 7.3125 -5.710938 7.5 -5.203125 C 7.695312 -4.703125 8.019531 -4.257812 8.46875 -3.875 C 8.914062 -3.5 9.53125 -3.3125 10.3125 -3.3125 C 11.238281 -3.3125 11.914062 -3.46875 12.34375 -3.78125 C 12.769531 -4.09375 13.046875 -4.503906 13.171875 -5.015625 C 13.296875 -5.535156 13.359375 -6.082031 13.359375 -6.65625 C 13.359375 -7.394531 13.078125 -7.984375 12.515625 -8.421875 C 11.953125 -8.859375 11.226562 -9.234375 10.34375 -9.546875 C 9.457031 -9.859375 8.519531 -10.1875 7.53125 -10.53125 C 6.539062 -10.875 5.609375 -11.316406 4.734375 -11.859375 C 3.859375 -12.398438 3.132812 -13.117188 2.5625 -14.015625 C 2 -14.910156 1.71875 -16.070312 1.71875 -17.5 C 1.71875 -18.96875 1.988281 -20.222656 2.53125 -21.265625 C 3.070312 -22.316406 3.953125 -23.117188 5.171875 -23.671875 C 6.390625 -24.222656 8.046875 -24.5 10.140625 -24.5 C 12.097656 -24.5 13.675781 -24.175781 14.875 -23.53125 C 16.070312 -22.894531 16.957031 -22.050781 17.53125 -21 C 18.101562 -19.957031 18.4375 -18.847656 18.53125 -17.671875 C 18.53125 -17.484375 18.46875 -17.316406 18.34375 -17.171875 C 18.21875 -17.023438 18.050781 -16.953125 17.84375 -16.953125 L 13.765625 -16.953125 C 13.359375 -16.953125 13.128906 -17.15625 13.078125 -17.5625 C 13.054688 -17.976562 12.96875 -18.4375 12.8125 -18.9375 C 12.664062 -19.445312 12.390625 -19.890625 11.984375 -20.265625 C 11.585938 -20.648438 11 -20.84375 10.21875 -20.84375 C 9.300781 -20.84375 8.625 -20.6875 8.1875 -20.375 C 7.75 -20.070312 7.46875 -19.660156 7.34375 -19.140625 C 7.226562 -18.617188 7.171875 -18.070312 7.171875 -17.5 Z M 7.171875 -17.5"/></g></g></g></svg>